<svg id="svg" version="1.1" xmlns="http://www.w3.org/2000/svg" xmlns:xlink="http://www.w3.org/1999/xlink" width="400" height="400" viewBox="0, 0, 400,400"><g id="svgg"><path id="path0" d="M189.200 26.250 C 152.016 29.603,121.676 41.045,94.600 61.927 C 2.936 132.623,4.130 270.883,97.000 339.813 C 172.947 396.183,280.933 381.064,338.407 306.014 C 354.289 285.274,367.877 255.383,371.009 234.298 L 371.292 232.396 336.616 232.498 L 301.940 232.600 300.437 236.400 C 285.501 274.177,248.987 300.724,207.998 303.607 C 158.811 307.066,112.283 275.636,97.927 229.253 C 97.494 227.852,97.043 226.457,96.927 226.153 C 96.747 225.684,104.597 225.600,148.557 225.600 L 200.400 225.600 200.400 200.000 L 200.400 174.400 147.600 174.400 C 103.942 174.400,94.800 174.308,94.800 173.868 C 94.800 171.114,99.868 156.266,103.138 149.439 C 131.489 90.253,205.687 69.784,260.154 106.122 C 280.873 119.945,295.704 139.797,303.468 164.100 L 304.970 168.800 338.285 168.800 C 356.608 168.800,371.600 168.730,371.600 168.644 C 371.600 167.549,368.841 155.751,367.614 151.600 C 347.622 83.967,290.837 35.778,221.000 27.180 C 214.475 26.376,194.332 25.788,189.200 26.250 " stroke="none" fill="#2c4c5c" fill-rule="evenodd"></path><path id="path1" d="M183.300 1.073 C 181.485 1.161,180.000 1.405,180.000 1.616 C 180.000 1.827,179.325 2.000,178.500 1.999 C 176.233 1.999,168.228 2.901,168.000 3.183 C 167.890 3.319,165.551 3.753,162.802 4.147 C 160.053 4.542,157.623 5.001,157.402 5.168 C 157.181 5.336,155.650 5.702,154.000 5.983 C 152.350 6.263,150.820 6.635,150.600 6.809 C 150.380 6.983,149.030 7.351,147.600 7.627 C 146.170 7.903,144.910 8.252,144.800 8.403 C 144.690 8.554,143.250 9.000,141.600 9.394 C 139.950 9.787,138.420 10.241,138.200 10.402 C 137.980 10.563,136.855 10.917,135.700 11.188 C 134.545 11.458,133.600 11.822,133.600 11.995 C 133.600 12.169,132.946 12.434,132.146 12.584 C 131.346 12.734,130.044 13.204,129.252 13.628 C 128.460 14.053,127.569 14.400,127.273 14.400 C 126.760 14.400,122.868 15.994,119.374 17.636 C 118.479 18.056,117.534 18.400,117.274 18.400 C 117.013 18.400,116.800 18.580,116.800 18.800 C 116.800 19.020,116.588 19.200,116.329 19.200 C 115.691 19.200,104.061 25.012,103.600 25.562 C 103.490 25.693,102.590 26.198,101.600 26.684 C 99.739 27.597,97.550 28.850,97.200 29.201 C 97.090 29.311,96.460 29.671,95.800 30.001 C 95.140 30.330,94.251 30.915,93.825 31.300 C 93.398 31.685,92.807 32.000,92.512 32.000 C 92.217 32.000,91.883 32.239,91.771 32.532 C 91.659 32.824,90.944 33.308,90.183 33.607 C 89.423 33.905,88.800 34.300,88.800 34.485 C 88.800 34.669,88.350 34.991,87.800 35.200 C 87.250 35.409,86.800 35.765,86.800 35.990 C 86.800 36.216,86.609 36.400,86.376 36.400 C 85.947 36.400,82.735 38.664,81.566 39.790 C 81.218 40.125,80.783 40.400,80.600 40.400 C 80.417 40.400,79.982 40.671,79.634 41.001 C 79.285 41.332,78.190 42.239,77.200 43.017 C 73.853 45.648,72.233 46.997,71.415 47.834 C 70.967 48.293,70.303 48.833,69.939 49.034 C 67.506 50.382,50.653 67.207,49.000 69.939 C 48.544 70.693,46.238 73.326,44.900 74.621 C 44.405 75.100,44.000 75.627,44.000 75.793 C 44.000 76.072,42.374 78.146,40.990 79.634 C 40.665 79.982,40.400 80.417,40.400 80.600 C 40.400 80.783,40.125 81.218,39.790 81.566 C 38.664 82.735,36.400 85.947,36.400 86.376 C 36.400 86.609,36.216 86.800,35.990 86.800 C 35.765 86.800,35.409 87.250,35.200 87.800 C 34.991 88.350,34.669 88.800,34.485 88.800 C 34.300 88.800,33.905 89.423,33.607 90.183 C 33.308 90.944,32.824 91.659,32.532 91.771 C 32.239 91.883,32.000 92.217,32.000 92.512 C 32.000 92.807,31.685 93.398,31.300 93.825 C 30.915 94.251,30.330 95.140,30.001 95.800 C 29.671 96.460,29.311 97.090,29.201 97.200 C 28.850 97.550,27.597 99.739,26.684 101.600 C 26.198 102.590,25.693 103.490,25.562 103.600 C 25.012 104.061,19.200 115.691,19.200 116.329 C 19.200 116.588,19.020 116.800,18.800 116.800 C 18.580 116.800,18.400 117.013,18.400 117.274 C 18.400 117.534,18.056 118.479,17.636 119.374 C 15.994 122.868,14.400 126.760,14.400 127.273 C 14.400 127.569,14.040 128.484,13.600 129.304 C 13.160 130.125,12.800 130.988,12.800 131.220 C 12.800 131.453,12.460 132.399,12.045 133.322 C 11.630 134.245,11.159 135.630,10.999 136.400 C 10.839 137.170,10.573 137.980,10.408 138.200 C 10.244 138.420,9.787 139.950,9.394 141.600 C 9.000 143.250,8.556 144.690,8.407 144.800 C 8.257 144.910,7.898 146.170,7.608 147.600 C 7.318 149.030,6.948 150.380,6.787 150.600 C 6.625 150.820,6.263 152.350,5.983 154.000 C 5.702 155.650,5.336 157.181,5.168 157.402 C 5.001 157.623,4.542 160.053,4.147 162.802 C 3.753 165.551,3.319 167.890,3.183 168.000 C 2.903 168.226,1.999 176.225,1.999 178.467 C 2.000 179.285,1.779 180.007,1.500 180.100 C 0.804 180.332,0.771 219.405,1.465 220.839 C 1.721 221.368,2.144 224.216,2.405 227.169 C 2.666 230.122,3.033 232.822,3.219 233.169 C 3.406 233.516,3.854 235.960,4.214 238.600 C 4.574 241.240,5.005 243.580,5.171 243.800 C 5.337 244.020,5.702 245.550,5.983 247.200 C 6.263 248.850,6.622 250.380,6.780 250.600 C 6.939 250.820,7.298 252.080,7.578 253.400 C 7.859 254.720,8.224 255.980,8.390 256.200 C 8.555 256.420,9.010 257.950,9.400 259.600 C 9.790 261.250,10.242 262.780,10.403 263.000 C 10.565 263.220,10.934 264.345,11.224 265.500 C 11.514 266.655,11.875 267.600,12.026 267.600 C 12.177 267.600,12.408 268.140,12.540 268.800 C 12.672 269.460,13.144 270.800,13.590 271.778 C 14.035 272.756,14.400 273.748,14.400 273.982 C 14.400 274.384,14.761 275.239,17.055 280.275 C 17.575 281.417,18.000 282.529,18.000 282.747 C 18.000 282.965,18.231 283.381,18.514 283.671 C 18.797 283.962,19.255 284.965,19.530 285.900 C 19.806 286.835,20.191 287.600,20.384 287.600 C 20.578 287.600,20.852 288.095,20.993 288.700 C 21.134 289.305,21.870 290.880,22.629 292.200 C 23.388 293.520,24.297 295.230,24.649 296.000 C 25.002 296.770,25.410 297.490,25.556 297.600 C 25.702 297.710,26.159 298.565,26.572 299.500 C 26.984 300.435,27.441 301.200,27.586 301.200 C 27.732 301.200,28.098 301.830,28.400 302.600 C 28.702 303.370,29.084 304.000,29.248 304.000 C 29.412 304.000,29.660 304.359,29.799 304.798 C 29.938 305.236,30.272 305.821,30.541 306.098 C 30.810 306.374,31.347 307.275,31.734 308.100 C 32.121 308.925,32.609 309.600,32.819 309.600 C 33.028 309.600,33.200 309.796,33.200 310.035 C 33.200 310.398,35.349 313.749,36.000 314.400 C 36.110 314.510,36.920 315.676,37.800 316.990 C 39.276 319.194,39.814 319.885,41.419 321.634 C 41.738 321.982,42.000 322.468,42.000 322.714 C 42.000 322.959,42.242 323.304,42.537 323.480 C 42.832 323.656,43.417 324.331,43.836 324.981 C 44.255 325.630,44.958 326.546,45.399 327.017 C 45.839 327.487,46.830 328.621,47.600 329.538 C 53.635 336.719,64.365 347.484,70.987 353.000 C 72.043 353.880,73.108 354.780,73.354 355.000 C 73.780 355.381,77.355 358.251,78.200 358.891 C 78.420 359.057,79.500 359.880,80.600 360.719 C 84.063 363.362,89.140 366.800,89.579 366.800 C 89.810 366.800,90.000 366.986,90.000 367.213 C 90.000 367.439,90.315 367.744,90.700 367.889 C 91.085 368.034,92.102 368.658,92.960 369.276 C 93.818 369.894,94.763 370.400,95.060 370.400 C 95.357 370.400,95.600 370.578,95.600 370.795 C 95.600 371.012,96.185 371.465,96.900 371.802 C 98.647 372.625,100.551 373.735,100.814 374.084 C 100.932 374.241,101.742 374.666,102.614 375.029 C 103.486 375.393,104.290 375.805,104.400 375.945 C 104.791 376.444,113.357 380.800,113.947 380.800 C 114.196 380.800,114.400 380.957,114.400 381.148 C 114.400 381.339,115.210 381.723,116.200 382.000 C 117.190 382.277,118.000 382.641,118.000 382.808 C 118.000 382.975,118.810 383.351,119.800 383.643 C 120.790 383.935,121.600 384.287,121.600 384.424 C 121.600 384.561,122.680 385.000,124.000 385.400 C 125.320 385.800,126.400 386.244,126.400 386.388 C 126.400 386.531,127.300 386.879,128.400 387.161 C 129.500 387.443,130.400 387.817,130.400 387.992 C 130.400 388.168,131.075 388.437,131.900 388.592 C 132.725 388.746,134.120 389.196,135.000 389.591 C 135.880 389.986,137.230 390.441,138.000 390.601 C 138.770 390.761,139.580 391.030,139.800 391.198 C 140.020 391.365,141.640 391.832,143.400 392.235 C 145.160 392.638,146.690 393.079,146.800 393.216 C 146.910 393.353,148.170 393.702,149.600 393.992 C 151.030 394.282,152.380 394.654,152.600 394.819 C 152.820 394.983,154.440 395.342,156.200 395.616 C 157.960 395.890,159.580 396.251,159.800 396.418 C 160.020 396.585,162.540 397.027,165.400 397.400 C 168.260 397.773,170.960 398.234,171.400 398.424 C 175.733 400.300,225.384 400.289,229.800 398.412 C 230.240 398.225,232.940 397.765,235.800 397.391 C 238.660 397.016,241.180 396.579,241.400 396.419 C 241.620 396.259,243.150 395.898,244.800 395.617 C 246.450 395.337,247.980 394.980,248.200 394.824 C 248.420 394.669,249.860 394.304,251.400 394.013 C 252.940 393.722,254.290 393.368,254.400 393.226 C 254.510 393.083,256.040 392.638,257.800 392.235 C 259.560 391.832,261.180 391.368,261.400 391.204 C 261.620 391.039,262.746 390.683,263.901 390.412 C 265.057 390.141,266.091 389.776,266.200 389.600 C 266.309 389.424,267.298 389.064,268.399 388.800 C 269.499 388.536,270.400 388.187,270.400 388.024 C 270.400 387.861,271.390 387.490,272.600 387.200 C 273.810 386.910,274.800 386.528,274.800 386.352 C 274.800 386.175,275.565 385.829,276.500 385.583 C 277.435 385.336,278.560 384.907,279.000 384.628 C 279.440 384.349,280.515 383.887,281.389 383.600 C 282.263 383.314,283.221 382.836,283.518 382.540 C 283.814 382.243,284.299 382.000,284.595 382.000 C 285.155 382.000,296.449 376.399,296.800 375.947 C 296.910 375.806,297.630 375.393,298.400 375.031 C 299.170 374.668,300.520 373.935,301.400 373.402 C 302.280 372.868,303.540 372.129,304.200 371.760 C 304.860 371.391,305.490 370.958,305.600 370.798 C 305.710 370.638,306.589 370.078,307.552 369.554 C 308.516 369.029,309.731 368.365,310.252 368.078 C 310.774 367.791,311.200 367.386,311.200 367.178 C 311.200 366.970,311.436 366.800,311.725 366.800 C 312.013 366.800,312.609 366.464,313.050 366.054 C 313.490 365.644,314.285 365.075,314.817 364.791 C 316.025 364.145,324.910 357.385,326.504 355.900 C 327.153 355.295,327.780 354.800,327.898 354.800 C 328.015 354.800,328.941 354.061,329.955 353.158 C 330.970 352.254,332.863 350.589,334.163 349.458 C 337.213 346.801,346.801 337.213,349.458 334.163 C 350.589 332.863,352.254 330.970,353.158 329.955 C 354.061 328.941,354.800 328.015,354.800 327.898 C 354.800 327.780,355.299 327.150,355.909 326.497 C 358.377 323.855,366.800 312.374,366.800 311.652 C 366.800 311.451,367.070 311.182,367.400 311.055 C 367.730 310.929,368.000 310.627,368.000 310.386 C 368.000 310.144,368.450 309.357,369.000 308.636 C 369.550 307.914,370.000 307.129,370.000 306.891 C 370.000 306.652,370.247 306.210,370.548 305.909 C 370.850 305.608,371.397 304.830,371.764 304.180 C 372.131 303.531,372.868 302.280,373.402 301.400 C 373.935 300.520,374.668 299.170,375.031 298.400 C 375.393 297.630,375.810 296.910,375.957 296.800 C 376.391 296.475,382.410 284.246,382.405 283.700 C 382.402 283.425,382.560 283.200,382.757 283.200 C 382.953 283.200,383.236 282.711,383.386 282.113 C 383.536 281.515,384.096 280.103,384.629 278.974 C 385.163 277.846,385.600 276.715,385.600 276.460 C 385.600 276.205,385.960 275.326,386.399 274.506 C 386.839 273.686,387.309 272.426,387.444 271.707 C 387.579 270.988,387.831 270.400,388.005 270.400 C 388.178 270.400,388.536 269.499,388.800 268.399 C 389.064 267.298,389.424 266.309,389.600 266.200 C 389.776 266.091,390.141 265.057,390.412 263.901 C 390.683 262.746,391.039 261.620,391.204 261.400 C 391.368 261.180,391.832 259.560,392.235 257.800 C 392.638 256.040,393.083 254.510,393.226 254.400 C 393.368 254.290,393.722 252.940,394.013 251.400 C 394.304 249.860,394.666 248.420,394.818 248.200 C 394.970 247.980,395.311 246.540,395.577 245.000 C 395.842 243.460,396.218 241.840,396.413 241.400 C 396.817 240.487,398.000 232.579,398.000 230.788 C 398.000 230.135,398.154 229.600,398.343 229.600 C 400.232 229.600,400.307 175.749,398.424 171.400 C 398.234 170.960,397.773 168.260,397.400 165.400 C 397.027 162.540,396.585 160.020,396.418 159.800 C 396.251 159.580,395.890 157.960,395.616 156.200 C 395.342 154.440,394.983 152.820,394.819 152.600 C 394.654 152.380,394.282 151.030,393.992 149.600 C 393.702 148.170,393.353 146.910,393.216 146.800 C 393.079 146.690,392.638 145.160,392.235 143.400 C 391.832 141.640,391.365 140.020,391.198 139.800 C 391.030 139.580,390.761 138.770,390.601 138.000 C 390.441 137.230,389.986 135.880,389.591 135.000 C 389.196 134.120,388.746 132.725,388.592 131.900 C 388.437 131.075,388.168 130.400,387.992 130.400 C 387.817 130.400,387.443 129.500,387.161 128.400 C 386.879 127.300,386.531 126.400,386.388 126.400 C 386.244 126.400,385.800 125.320,385.400 124.000 C 385.000 122.680,384.561 121.600,384.424 121.600 C 384.287 121.600,383.935 120.790,383.643 119.800 C 383.351 118.810,382.975 118.000,382.808 118.000 C 382.641 118.000,382.277 117.190,382.000 116.200 C 381.723 115.210,381.376 114.400,381.228 114.400 C 381.081 114.400,380.721 113.725,380.429 112.900 C 380.136 112.075,379.323 110.410,378.623 109.200 C 377.922 107.990,377.092 106.415,376.777 105.700 C 376.462 104.985,376.093 104.400,375.957 104.400 C 375.820 104.400,375.399 103.590,375.021 102.600 C 374.643 101.610,374.169 100.800,373.967 100.800 C 373.765 100.800,373.600 100.530,373.600 100.200 C 373.600 99.870,373.245 99.245,372.810 98.810 C 372.376 98.376,371.903 97.551,371.759 96.978 C 371.615 96.405,371.250 95.841,370.949 95.725 C 370.647 95.609,370.400 95.291,370.400 95.017 C 370.400 94.744,369.860 93.775,369.200 92.863 C 368.540 91.952,368.000 91.020,368.000 90.791 C 368.000 90.562,367.730 90.271,367.400 90.145 C 367.070 90.018,366.800 89.726,366.800 89.495 C 366.800 89.264,366.350 88.486,365.800 87.764 C 365.250 87.043,364.800 86.348,364.800 86.218 C 364.800 85.940,356.321 74.804,355.005 73.354 C 354.782 73.108,353.880 72.043,353.000 70.987 C 347.512 64.400,336.644 53.565,329.539 47.600 C 328.622 46.830,327.487 45.839,327.017 45.399 C 326.546 44.958,325.630 44.255,324.981 43.836 C 324.331 43.417,323.656 42.832,323.480 42.537 C 323.304 42.242,322.959 42.000,322.714 42.000 C 322.468 42.000,321.982 41.738,321.634 41.419 C 319.885 39.814,319.194 39.276,316.990 37.800 C 315.676 36.920,314.510 36.110,314.400 36.000 C 313.749 35.349,310.398 33.200,310.035 33.200 C 309.796 33.200,309.600 33.028,309.600 32.819 C 309.600 32.609,308.925 32.121,308.100 31.734 C 307.275 31.347,306.374 30.810,306.098 30.541 C 305.821 30.272,305.236 29.938,304.798 29.799 C 304.359 29.660,304.000 29.412,304.000 29.248 C 304.000 29.084,303.370 28.702,302.600 28.400 C 301.830 28.098,301.200 27.732,301.200 27.586 C 301.200 27.441,300.435 26.984,299.500 26.572 C 298.565 26.159,297.710 25.702,297.600 25.556 C 297.490 25.410,296.770 25.002,296.000 24.649 C 295.230 24.297,293.520 23.388,292.200 22.629 C 290.880 21.870,289.305 21.134,288.700 20.993 C 288.095 20.852,287.600 20.578,287.600 20.384 C 287.600 20.191,286.835 19.806,285.900 19.530 C 284.965 19.255,283.962 18.797,283.671 18.514 C 283.381 18.231,282.965 18.000,282.747 18.000 C 282.529 18.000,281.417 17.575,280.275 17.055 C 275.239 14.761,274.384 14.400,273.982 14.400 C 273.748 14.400,272.756 14.035,271.778 13.590 C 270.800 13.144,269.460 12.672,268.800 12.540 C 268.140 12.408,267.600 12.177,267.600 12.026 C 267.600 11.875,266.655 11.514,265.500 11.224 C 264.345 10.934,263.220 10.565,263.000 10.403 C 262.780 10.242,261.250 9.790,259.600 9.400 C 257.950 9.010,256.420 8.555,256.200 8.389 C 255.980 8.223,254.720 7.868,253.400 7.600 C 252.080 7.332,250.820 6.974,250.600 6.803 C 250.380 6.633,248.850 6.263,247.200 5.983 C 245.550 5.702,244.020 5.337,243.800 5.171 C 243.580 5.005,241.240 4.574,238.600 4.214 C 235.960 3.854,233.512 3.404,233.159 3.213 C 232.806 3.023,230.016 2.643,226.959 2.370 C 223.902 2.097,221.156 1.684,220.859 1.453 C 220.319 1.035,190.384 0.732,183.300 1.073 M221.000 27.180 C 290.837 35.778,347.622 83.967,367.614 151.600 C 368.841 155.751,371.600 167.549,371.600 168.644 C 371.600 168.730,356.608 168.800,338.285 168.800 L 304.970 168.800 303.468 164.100 C 275.032 75.091,156.214 60.685,107.996 140.400 C 102.429 149.605,94.800 168.952,94.800 173.868 C 94.800 174.308,103.942 174.400,147.600 174.400 L 200.400 174.400 200.400 200.000 L 200.400 225.600 148.557 225.600 C 104.597 225.600,96.747 225.684,96.927 226.153 C 97.043 226.457,97.494 227.852,97.927 229.253 C 112.283 275.636,158.811 307.066,207.998 303.607 C 248.987 300.724,285.501 274.177,300.437 236.400 L 301.940 232.600 336.616 232.498 L 371.292 232.396 371.009 234.298 C 368.131 253.676,356.272 280.885,341.600 301.773 C 293.139 370.765,196.337 394.019,121.000 354.767 C 13.295 298.651,-6.195 154.988,82.637 71.992 C 111.152 45.350,146.728 30.079,189.200 26.250 C 194.332 25.788,214.475 26.376,221.000 27.180 " stroke="none" fill="#fbfbfb" fill-rule="evenodd"></path></g></svg>