<?xml version="1.0" standalone="yes"?>
<svg xmlns="http://www.w3.org/2000/svg" width="768" height="768">
<path style="fill:#010101; stroke:none;" d="M0 0L0 768L2 768L2 2L768 2L768 0L0 0z"/>
<path style="fill:#ffffff; stroke:none;" d="M2 2L2 768L768 768L768 2L2 2z"/>
<path style="fill:#010101; stroke:none;" d="M51 50L51 195L52 195C86.6482 136.249 136.082 83.0864 197 51C185.544 46.1929 165.468 50 153 50L51 50z"/>
<path style="fill:#ccd2d8; stroke:none;" d="M359 50L359 51L362 51L359 50z"/>
<path style="fill:#93a1ac; stroke:none;" d="M362 50L362 51L371 51L362 50z"/>
<path style="fill:#2f495f; stroke:none;" d="M713 446L619 446C609.066 446 590.353 442.344 581.394 446.603C577.591 448.411 576.253 455.434 574.719 459C570.208 469.484 564.718 479.385 558.565 489C542.59 513.964 520.644 534.748 496 550.997C409.67 607.917 293.464 587.155 227 510C209.123 489.247 189.747 459.799 186 432L385 432L385 335L182 335C184.058 309.8 198.298 282.687 212.004 262C272.758 170.303 399.287 141.084 493 199.425C515.045 213.149 534.78 231.249 550.373 252C565.605 272.269 581.226 298.447 585 324L713 324C710.49 292.461 696.212 259.929 682.247 232C614.077 95.6606 457.12 25.9299 310 58.4244C170.611 89.2115 61.8591 214.336 52.0895 357C48.9887 402.28 53.6764 448.906 68.6952 492C85.2169 539.407 111.889 583.05 147.015 619C257.7 732.283 440.282 748.521 571 661.333C605.619 638.243 636.217 608.443 659.656 574C686.038 535.232 704.073 492.03 713 446z"/>
<path style="fill:#93a1ac; stroke:none;" d="M398 50L398 51L407 51L398 50z"/>
<path style="fill:#ccd2d8; stroke:none;" d="M407 50L407 51L411 51L407 50z"/>
<path style="fill:#010101; stroke:none;" d="M573 50L573 51C614.3 72.7536 650.885 105.311 680.586 141C692.2 154.955 705.198 170.507 713 187L714 187L714 50L573 50z"/>
<path style="fill:#ccd2d8; stroke:none;" d="M348 51L348 52L351 52L348 51z"/>
<path style="fill:#93a1ac; stroke:none;" d="M351 51L351 52L355 52L351 51M415 51L415 52L419 52L415 51z"/>
<path style="fill:#ccd2d8; stroke:none;" d="M419 51L419 52L422 52L419 51M340.667 52.3333L341.333 52.6667L340.667 52.3333z"/>
<path style="fill:#93a1ac; stroke:none;" d="M342 52L342 53L345 53L342 52M424 52L424 53L428 53L424 52z"/>
<path style="fill:#ccd2d8; stroke:none;" d="M428.667 52.3333L429.333 52.6667L428.667 52.3333M333.667 53.3333L334.333 53.6667L333.667 53.3333z"/>
<path style="fill:#93a1ac; stroke:none;" d="M335 53L335 54L338 54L335 53M432 53L432 54L435 54L432 53z"/>
<path style="fill:#ccd2d8; stroke:none;" d="M435.667 53.3333L436.333 53.6667L435.667 53.3333M327 54L328 55L327 54z"/>
<path style="fill:#93a1ac; stroke:none;" d="M328 54L328 55L331 55L328 54M439.667 54.3333L440.333 54.6667L439.667 54.3333z"/>
<path style="fill:#ccd2d8; stroke:none;" d="M441.667 54.3333L442.333 54.6667L441.667 54.3333M322 55L323 56L322 55z"/>
<path style="fill:#93a1ac; stroke:none;" d="M323.667 55.3333L324.333 55.6667L323.667 55.3333M445.667 55.3333L446.333 55.6667L445.667 55.3333z"/>
<path style="fill:#ccd2d8; stroke:none;" d="M447 55L448 56L447 55M317 56L318 57L317 56z"/>
<path style="fill:#93a1ac; stroke:none;" d="M318.667 56.3333L319.333 56.6667L318.667 56.3333M450.667 56.3333L451.333 56.6667L450.667 56.3333z"/>
<path style="fill:#ccd2d8; stroke:none;" d="M452 56L453 57L452 56M312 57L313 58L312 57z"/>
<path style="fill:#93a1ac; stroke:none;" d="M313.667 57.3333L314.333 57.6667L313.667 57.3333M455.667 57.3333L456.333 57.6667L455.667 57.3333z"/>
<path style="fill:#ccd2d8; stroke:none;" d="M457 57L458 58L457 57M308 58L309 59L308 58z"/>
<path style="fill:#93a1ac; stroke:none;" d="M309 58L310 59L309 58M460 58L461 59L460 58z"/>
<path style="fill:#ccd2d8; stroke:none;" d="M461 58L462 59L461 58M303 59L304 60L303 59z"/>
<path style="fill:#93a1ac; stroke:none;" d="M304.667 59.3333L305.333 59.6667L304.667 59.3333M464 59L465 60L464 59z"/>
<path style="fill:#ccd2d8; stroke:none;" d="M465 59L466 60L465 59M300 60L301 61L300 60z"/>
<path style="fill:#93a1ac; stroke:none;" d="M301 60L302 61L301 60M468 60L469 61L468 60z"/>
<path style="fill:#ccd2d8; stroke:none;" d="M469 60L470 61L469 60M296 61L297 62L296 61z"/>
<path style="fill:#93a1ac; stroke:none;" d="M297 61L298 62L297 61M472 61L473 62L472 61z"/>
<path style="fill:#ccd2d8; stroke:none;" d="M473 61L474 62L473 61M292 62L293 63L292 62z"/>
<path style="fill:#93a1ac; stroke:none;" d="M293 62L294 63L293 62M475.667 62.3333L476.333 62.6667L475.667 62.3333z"/>
<path style="fill:#ccd2d8; stroke:none;" d="M289 63L290 64L289 63z"/>
<path style="fill:#93a1ac; stroke:none;" d="M290 63L291 64L290 63M479 63L480 64L479 63z"/>
<path style="fill:#ccd2d8; stroke:none;" d="M480 63L481 64L480 63z"/>
<path style="fill:#93a1ac; stroke:none;" d="M286.667 64.3333L287.333 64.6667L286.667 64.3333M482 64L483 65L482 64z"/>
<path style="fill:#ccd2d8; stroke:none;" d="M483 64L484 65L483 64M282 65L283 66L282 65z"/>
<path style="fill:#93a1ac; stroke:none;" d="M283 65L284 66L283 65M485.667 65.3333L486.333 65.6667L485.667 65.3333z"/>
<path style="fill:#ccd2d8; stroke:none;" d="M279 66L280 67L279 66z"/>
<path style="fill:#93a1ac; stroke:none;" d="M280 66L281 67L280 66M489 66L490 67L489 66z"/>
<path style="fill:#ccd2d8; stroke:none;" d="M276 67L277 68L276 67z"/>
<path style="fill:#93a1ac; stroke:none;" d="M277 67L278 68L277 67M492 67L493 68L492 67M274 68L275 69L274 68z"/>
<path style="fill:#ccd2d8; stroke:none;" d="M495 68L496 69L495 68M271 69L272 70L271 69z"/>
<path style="fill:#93a1ac; stroke:none;" d="M497 69L498 70L497 69z"/>
<path style="fill:#ccd2d8; stroke:none;" d="M498 69L499 70L498 69M268 70L269 71L268 70z"/>
<path style="fill:#93a1ac; stroke:none;" d="M269 70L270 71L269 70M500 70L501 71L500 70z"/>
<path style="fill:#ccd2d8; stroke:none;" d="M501 70L502 71L501 70M265 71L266 72L265 71z"/>
<path style="fill:#93a1ac; stroke:none;" d="M266 71L267 72L266 71M503 71L504 72L503 71z"/>
<path style="fill:#ccd2d8; stroke:none;" d="M263 72L264 73L263 72z"/>
<path style="fill:#93a1ac; stroke:none;" d="M505 72L506 73L505 72z"/>
<path style="fill:#ccd2d8; stroke:none;" d="M506 72L507 73L506 72M260 73L261 74L260 73z"/>
<path style="fill:#93a1ac; stroke:none;" d="M261 73L262 74L261 73M508 73L509 74L508 73z"/>
<path style="fill:#ccd2d8; stroke:none;" d="M258 74L259 75L258 74z"/>
<path style="fill:#93a1ac; stroke:none;" d="M510 74L511 75L510 74z"/>
<path style="fill:#ccd2d8; stroke:none;" d="M511 74L512 75L511 74z"/>
<path style="fill:#93a1ac; stroke:none;" d="M256 75L257 76L256 75M513 75L514 76L513 75z"/>
<path style="fill:#ccd2d8; stroke:none;" d="M253 76L254 77L253 76z"/>
<path style="fill:#93a1ac; stroke:none;" d="M254 76L255 77L254 76M515 76L516 77L515 76z"/>
<path style="fill:#ccd2d8; stroke:none;" d="M516 76L517 77L516 76z"/>
<path style="fill:#93a1ac; stroke:none;" d="M251 77L252 78L251 77z"/>
<path style="fill:#ccd2d8; stroke:none;" d="M518 77L519 78L518 77z"/>
<path style="fill:#93a1ac; stroke:none;" d="M249 78L250 79L249 78M520 78L521 79L520 78z"/>
<path style="fill:#ccd2d8; stroke:none;" d="M246 79L247 80L246 79z"/>
<path style="fill:#93a1ac; stroke:none;" d="M247 79L248 80L247 79M522 79L523 80L522 79z"/>
<path style="fill:#ccd2d8; stroke:none;" d="M244 80L245 81L244 80z"/>
<path style="fill:#93a1ac; stroke:none;" d="M245 80L246 81L245 80M524 80L525 81L524 80z"/>
<path style="fill:#ccd2d8; stroke:none;" d="M525 80L526 81L525 80M242 81L243 82L242 81z"/>
<path style="fill:#93a1ac; stroke:none;" d="M526 81L527 82L526 81z"/>
<path style="fill:#ccd2d8; stroke:none;" d="M527 81L528 82L527 81M240 82L241 83L240 82M529 82L530 83L529 82z"/>
<path style="fill:#93a1ac; stroke:none;" d="M238 83L239 84L238 83z"/>
<path style="fill:#ccd2d8; stroke:none;" d="M531 83L532 84L531 83z"/>
<path style="fill:#93a1ac; stroke:none;" d="M236 84L237 85L236 84z"/>
<path style="fill:#ccd2d8; stroke:none;" d="M533 84L534 85L533 84z"/>
<path style="fill:#93a1ac; stroke:none;" d="M234 85L235 86L234 85z"/>
<path style="fill:#ccd2d8; stroke:none;" d="M535 85L536 86L535 85z"/>
<path style="fill:#93a1ac; stroke:none;" d="M232 86L233 87L232 86z"/>
<path style="fill:#ccd2d8; stroke:none;" d="M537 86L538 87L537 86M230 87L231 88L230 87M539 87L540 88L539 87M228 88L229 89L228 88z"/>
<path style="fill:#93a1ac; stroke:none;" d="M540 88L541 89L540 88z"/>
<path style="fill:#ccd2d8; stroke:none;" d="M541 88L542 89L541 88M226 89L227 90L226 89z"/>
<path style="fill:#93a1ac; stroke:none;" d="M542 89L543 90L542 89z"/>
<path style="fill:#ccd2d8; stroke:none;" d="M543 89L544 90L543 89M224 90L225 91L224 90z"/>
<path style="fill:#93a1ac; stroke:none;" d="M225 90L226 91L225 90M544 90L545 91L544 90M223 91L224 92L223 91M546 91L547 92L546 91M221 92L222 93L221 92M548 92L549 93L548 92z"/>
<path style="fill:#ccd2d8; stroke:none;" d="M219 93L220 94L219 93M550 93L551 94L550 93M217 94L218 95L217 94z"/>
<path style="fill:#93a1ac; stroke:none;" d="M551 94L552 95L551 94M216 95L217 96L216 95M553 95L554 96L553 95M214 96L215 97L214 96z"/>
<path style="fill:#ccd2d8; stroke:none;" d="M555 96L556 97L555 96M212 97L213 98L212 97z"/>
<path style="fill:#93a1ac; stroke:none;" d="M556 97L557 98L556 97z"/>
<path style="fill:#ccd2d8; stroke:none;" d="M557 97L558 98L557 97z"/>
<path style="fill:#93a1ac; stroke:none;" d="M211 98L212 99L211 98M558 98L559 99L558 98M209 99L210 100L209 99z"/>
<path style="fill:#ccd2d8; stroke:none;" d="M560 99L561 100L560 99M207 100L208 101L207 100z"/>
<path style="fill:#93a1ac; stroke:none;" d="M561 100L562 101L561 100M206 101L207 102L206 101M563 101L564 102L563 101z"/>
<path style="fill:#ccd2d8; stroke:none;" d="M204 102L205 103L204 102M565 102L566 103L565 102z"/>
<path style="fill:#93a1ac; stroke:none;" d="M203 103L204 104L203 103M566 103L567 104L566 103z"/>
<path style="fill:#ccd2d8; stroke:none;" d="M201 104L202 105L201 104M568 104L569 105L568 104z"/>
<path style="fill:#93a1ac; stroke:none;" d="M200 105L201 106L200 105M569 105L570 106L569 105z"/>
<path style="fill:#ccd2d8; stroke:none;" d="M198 106L199 107L198 106M571 106L572 107L571 106z"/>
<path style="fill:#93a1ac; stroke:none;" d="M197 107L198 108L197 107M572 107L573 108L572 107z"/>
<path style="fill:#ccd2d8; stroke:none;" d="M195 108L196 109L195 108M574 108L575 109L574 108z"/>
<path style="fill:#93a1ac; stroke:none;" d="M194 109L195 110L194 109M575 109L576 110L575 109z"/>
<path style="fill:#ccd2d8; stroke:none;" d="M192 110L193 111L192 110z"/>
<path style="fill:#93a1ac; stroke:none;" d="M576 110L577 111L576 110M191 111L192 112L191 111z"/>
<path style="fill:#ccd2d8; stroke:none;" d="M578 111L579 112L578 111z"/>
<path style="fill:#93a1ac; stroke:none;" d="M579 112L580 113L579 112z"/>
<path style="fill:#ccd2d8; stroke:none;" d="M188 113L189 114L188 113M581 113L582 114L581 113z"/>
<path style="fill:#93a1ac; stroke:none;" d="M187 114L188 115L187 114M582 114L583 115L582 114z"/>
<path style="fill:#ccd2d8; stroke:none;" d="M185 115L186 116L185 115z"/>
<path style="fill:#93a1ac; stroke:none;" d="M583 115L584 116L583 115M184 116L185 117L184 116z"/>
<path style="fill:#ccd2d8; stroke:none;" d="M585 116L586 117L585 116z"/>
<path style="fill:#93a1ac; stroke:none;" d="M183 117L184 118L183 117M586 117L587 118L586 117z"/>
<path style="fill:#ccd2d8; stroke:none;" d="M181 118L182 119L181 118z"/>
<path style="fill:#93a1ac; stroke:none;" d="M587 118L588 119L587 118z"/>
<path style="fill:#ccd2d8; stroke:none;" d="M180 119L181 120L180 119M589 119L590 120L589 119z"/>
<path style="fill:#93a1ac; stroke:none;" d="M179 120L180 121L179 120z"/>
<path style="fill:#ccd2d8; stroke:none;" d="M590 120L591 121L590 120z"/>
<path style="fill:#93a1ac; stroke:none;" d="M591 121L592 122L591 121z"/>
<path style="fill:#ccd2d8; stroke:none;" d="M176 122L177 123L176 122M175 123L176 124L175 123M594 123L595 124L594 123z"/>
<path style="fill:#93a1ac; stroke:none;" d="M174 124L175 125L174 124z"/>
<path style="fill:#ccd2d8; stroke:none;" d="M595 124L596 125L595 124z"/>
<path style="fill:#93a1ac; stroke:none;" d="M596 125L597 126L596 125z"/>
<path style="fill:#ccd2d8; stroke:none;" d="M171 126L172 127L171 126M170 127L171 128L170 127M599 127L600 128L599 127z"/>
<path style="fill:#93a1ac; stroke:none;" d="M169 128L170 129L169 128z"/>
<path style="fill:#ccd2d8; stroke:none;" d="M600 128L601 129L600 128z"/>
<path style="fill:#93a1ac; stroke:none;" d="M168 129L169 130L168 129z"/>
<path style="fill:#ccd2d8; stroke:none;" d="M601 129L602 130L601 129z"/>
<path style="fill:#93a1ac; stroke:none;" d="M167 130L168 131L167 130M602 130L603 131L602 130M603 131L604 132L603 131z"/>
<path style="fill:#ccd2d8; stroke:none;" d="M164 132L165 133L164 132M163 133L164 134L163 133M606 133L607 134L606 133M162 134L163 135L162 134M607 134L608 135L607 134z"/>
<path style="fill:#93a1ac; stroke:none;" d="M161 135L162 136L161 135z"/>
<path style="fill:#ccd2d8; stroke:none;" d="M608 135L609 136L608 135z"/>
<path style="fill:#93a1ac; stroke:none;" d="M160 136L161 137L160 136z"/>
<path style="fill:#ccd2d8; stroke:none;" d="M609 136L610 137L609 136z"/>
<path style="fill:#93a1ac; stroke:none;" d="M159 137L160 138L159 137z"/>
<path style="fill:#ccd2d8; stroke:none;" d="M610 137L611 138L610 137z"/>
<path style="fill:#93a1ac; stroke:none;" d="M158 138L159 139L158 138M611 138L612 139L611 138M612 139L613 140L612 139M613 140L614 141L613 140M614 141L615 142L614 141z"/>
<path style="fill:#ccd2d8; stroke:none;" d="M153 142L154 143L153 142M152 143L153 144L152 143M151 144L152 145L151 144M150 145L151 146L150 145M149 146L150 147L149 146M148 147L149 148L148 147M147 148L148 149L147 148M146 149L147 150L146 149M145 150L146 151L145 150M144 151L145 152L144 151M143 152L144 153L143 152z"/>
<path style="fill:#93a1ac; stroke:none;" d="M627 154L628 155L627 154M628 155L629 156L628 155M629 156L630 157L629 156M139 157L140 158L139 157M630 157L631 158L630 157M138 158L139 159L138 158z"/>
<path style="fill:#ccd2d8; stroke:none;" d="M631 158L632 159L631 158z"/>
<path style="fill:#93a1ac; stroke:none;" d="M137 159L138 160L137 159z"/>
<path style="fill:#ccd2d8; stroke:none;" d="M632 159L633 160L632 159z"/>
<path style="fill:#93a1ac; stroke:none;" d="M136 160L137 161L136 160z"/>
<path style="fill:#ccd2d8; stroke:none;" d="M633 160L634 161L633 160M135 161L136 162L135 161M634 161L635 162L634 161M134 162L135 163L134 162M133 163L134 164L133 163z"/>
<path style="fill:#93a1ac; stroke:none;" d="M637 165L638 166L637 165M131 166L132 167L131 166M638 166L639 167L638 166M130 167L131 168L130 167z"/>
<path style="fill:#ccd2d8; stroke:none;" d="M639 167L640 168L639 167z"/>
<path style="fill:#93a1ac; stroke:none;" d="M129 168L130 169L129 168z"/>
<path style="fill:#ccd2d8; stroke:none;" d="M640 168L641 169L640 168M128 169L129 170L128 169z"/>
<path style="fill:#93a1ac; stroke:none;" d="M366 169L366 170L372 170L366 169z"/>
<path style="fill:#ccd2d8; stroke:none;" d="M372 169L372 170L376 170L372 169M394 169L394 170L398 170L394 169z"/>
<path style="fill:#93a1ac; stroke:none;" d="M398 169L398 170L404 170L398 169z"/>
<path style="fill:#ccd2d8; stroke:none;" d="M127 170L128 171L127 170z"/>
<path style="fill:#93a1ac; stroke:none;" d="M357 170L357 171L360 171L357 170z"/>
<path style="fill:#ccd2d8; stroke:none;" d="M360 170L360 171L363 171L360 170M407.667 170.333L408.333 170.667L407.667 170.333z"/>
<path style="fill:#93a1ac; stroke:none;" d="M409 170L409 171L413 171L409 170M351.667 171.333L352.333 171.667L351.667 171.333z"/>
<path style="fill:#ccd2d8; stroke:none;" d="M353.667 171.333L354.333 171.667L353.667 171.333M415.667 171.333L416.333 171.667L415.667 171.333z"/>
<path style="fill:#93a1ac; stroke:none;" d="M417.667 171.333L418.333 171.667L417.667 171.333M642 171L643 172L642 171M345.667 172.333L346.333 172.667L345.667 172.333z"/>
<path style="fill:#ccd2d8; stroke:none;" d="M347.667 172.333L348.333 172.667L347.667 172.333M421.667 172.333L422.333 172.667L421.667 172.333z"/>
<path style="fill:#93a1ac; stroke:none;" d="M423.667 172.333L424.333 172.667L423.667 172.333M643 172L644 173L643 172M125 173L126 174L125 173M340.667 173.333L341.333 173.667L340.667 173.333z"/>
<path style="fill:#ccd2d8; stroke:none;" d="M342 173L343 174L342 173M426.667 173.333L427.333 173.667L426.667 173.333z"/>
<path style="fill:#93a1ac; stroke:none;" d="M428.667 173.333L429.333 173.667L428.667 173.333z"/>
<path style="fill:#ccd2d8; stroke:none;" d="M644 173L645 174L644 173M124 174L125 175L124 174z"/>
<path style="fill:#93a1ac; stroke:none;" d="M336.667 174.333L337.333 174.667L336.667 174.333z"/>
<path style="fill:#ccd2d8; stroke:none;" d="M338 174L339 175L338 174M431 174L432 175L431 174z"/>
<path style="fill:#93a1ac; stroke:none;" d="M432.667 174.333L433.333 174.667L432.667 174.333z"/>
<path style="fill:#ccd2d8; stroke:none;" d="M645 174L646 175L645 174M123 175L124 176L123 175z"/>
<path style="fill:#93a1ac; stroke:none;" d="M332 175L333 176L332 175z"/>
<path style="fill:#ccd2d8; stroke:none;" d="M333 175L334 176L333 175M435 175L436 176L435 175z"/>
<path style="fill:#93a1ac; stroke:none;" d="M436.667 175.333L437.333 175.667L436.667 175.333M328.667 176.333L329.333 176.667L328.667 176.333z"/>
<path style="fill:#ccd2d8; stroke:none;" d="M330 176L331 177L330 176M439 176L440 177L439 176z"/>
<path style="fill:#93a1ac; stroke:none;" d="M440 176L441 177L440 176M646 176L647 177L646 176M325 177L326 178L325 177z"/>
<path style="fill:#ccd2d8; stroke:none;" d="M326 177L327 178L326 177M443 177L444 178L443 177z"/>
<path style="fill:#93a1ac; stroke:none;" d="M444 177L445 178L444 177M647 177L648 178L647 177M121 178L122 179L121 178M322 178L323 179L322 178z"/>
<path style="fill:#ccd2d8; stroke:none;" d="M323 178L324 179L323 178M446 178L447 179L446 178z"/>
<path style="fill:#93a1ac; stroke:none;" d="M447 178L448 179L447 178z"/>
<path style="fill:#ccd2d8; stroke:none;" d="M648 178L649 179L648 178M120 179L121 180L120 179z"/>
<path style="fill:#93a1ac; stroke:none;" d="M319 179L320 180L319 179z"/>
<path style="fill:#ccd2d8; stroke:none;" d="M320 179L321 180L320 179M449 179L450 180L449 179z"/>
<path style="fill:#93a1ac; stroke:none;" d="M450 179L451 180L450 179z"/>
<path style="fill:#ccd2d8; stroke:none;" d="M649 179L650 180L649 179M119 180L120 181L119 180z"/>
<path style="fill:#93a1ac; stroke:none;" d="M316 180L317 181L316 180z"/>
<path style="fill:#ccd2d8; stroke:none;" d="M317 180L318 181L317 180M452 180L453 181L452 180z"/>
<path style="fill:#93a1ac; stroke:none;" d="M453 180L454 181L453 180M313 181L314 182L313 181z"/>
<path style="fill:#ccd2d8; stroke:none;" d="M314 181L315 182L314 181M455 181L456 182L455 181z"/>
<path style="fill:#93a1ac; stroke:none;" d="M456 181L457 182L456 181M650 181L651 182L650 181M118 182L119 183L118 182M310 182L311 183L310 182z"/>
<path style="fill:#ccd2d8; stroke:none;" d="M311 182L312 183L311 182z"/>
<path style="fill:#93a1ac; stroke:none;" d="M458 182L459 183L458 182z"/>
<path style="fill:#ccd2d8; stroke:none;" d="M651 182L652 183L651 182z"/>
<path style="fill:#93a1ac; stroke:none;" d="M117 183L118 184L117 183M308 183L309 184L308 183z"/>
<path style="fill:#ccd2d8; stroke:none;" d="M460 183L461 184L460 183z"/>
<path style="fill:#93a1ac; stroke:none;" d="M461 183L462 184L461 183z"/>
<path style="fill:#ccd2d8; stroke:none;" d="M652 183L653 184L652 183M116 184L117 185L116 184z"/>
<path style="fill:#93a1ac; stroke:none;" d="M305 184L306 185L305 184z"/>
<path style="fill:#ccd2d8; stroke:none;" d="M306 184L307 185L306 184z"/>
<path style="fill:#93a1ac; stroke:none;" d="M463 184L464 185L463 184M303 185L304 186L303 185z"/>
<path style="fill:#ccd2d8; stroke:none;" d="M465 185L466 186L465 185z"/>
<path style="fill:#93a1ac; stroke:none;" d="M466 185L467 186L466 185M653 185L654 186L653 185M115 186L116 187L115 186M301 186L302 187L301 186M468 186L469 187L468 186z"/>
<path style="fill:#ccd2d8; stroke:none;" d="M654 186L655 187L654 186M114 187L115 188L114 187M299 187L300 188L299 187z"/>
<path style="fill:#93a1ac; stroke:none;" d="M470 187L471 188L470 187z"/>
<path style="fill:#ccd2d8; stroke:none;" d="M655 187L656 188L655 187z"/>
<path style="fill:#93a1ac; stroke:none;" d="M296 188L297 189L296 188z"/>
<path style="fill:#ccd2d8; stroke:none;" d="M297 188L298 189L297 188M472 188L473 189L472 188z"/>
<path style="fill:#93a1ac; stroke:none;" d="M294 189L295 190L294 189z"/>
<path style="fill:#ccd2d8; stroke:none;" d="M295 189L296 190L295 189M474 189L475 190L474 189z"/>
<path style="fill:#93a1ac; stroke:none;" d="M656 189L657 190L656 189M112 190L113 191L112 190M292 190L293 191L292 190z"/>
<path style="fill:#ccd2d8; stroke:none;" d="M293 190L294 191L293 190M476 190L477 191L476 190M657 190L658 191L657 190M111 191L112 192L111 191z"/>
<path style="fill:#93a1ac; stroke:none;" d="M290 191L291 192L290 191z"/>
<path style="fill:#ccd2d8; stroke:none;" d="M291 191L292 192L291 191M478 191L479 192L478 191z"/>
<path style="fill:#93a1ac; stroke:none;" d="M288 192L289 193L288 192z"/>
<path style="fill:#ccd2d8; stroke:none;" d="M289 192L290 193L289 192M480 192L481 193L480 192z"/>
<path style="fill:#93a1ac; stroke:none;" d="M658 192L659 193L658 192M110 193L111 194L110 193z"/>
<path style="fill:#ccd2d8; stroke:none;" d="M287 193L288 194L287 193z"/>
<path style="fill:#93a1ac; stroke:none;" d="M482 193L483 194L482 193z"/>
<path style="fill:#ccd2d8; stroke:none;" d="M659 193L660 194L659 193M109 194L110 195L109 194M285 194L286 195L285 194z"/>
<path style="fill:#93a1ac; stroke:none;" d="M484 194L485 195L484 194M283 195L284 196L283 195M486 195L487 196L486 195M660 195L661 196L660 195M108 196L109 197L108 196M281 196L282 197L281 196z"/>
<path style="fill:#ccd2d8; stroke:none;" d="M487 196L488 197L487 196z"/>
<path style="fill:#93a1ac; stroke:none;" d="M488 196L489 197L488 196M661 196L662 197L661 196z"/>
<path style="fill:#ccd2d8; stroke:none;" d="M107 197L108 198L107 197z"/>
<path style="fill:#93a1ac; stroke:none;" d="M279 197L280 198L279 197z"/>
<path style="fill:#ccd2d8; stroke:none;" d="M280 197L281 198L280 197M489 197L490 198L489 197M278 198L279 199L278 198z"/>
<path style="fill:#93a1ac; stroke:none;" d="M491 198L492 199L491 198M662 198L663 199L662 198M106 199L107 200L106 199M276 199L277 200L276 199z"/>
<path style="fill:#ccd2d8; stroke:none;" d="M492 199L493 200L492 199z"/>
<path style="fill:#93a1ac; stroke:none;" d="M493 199L494 200L493 199M663 199L664 200L663 199z"/>
<path style="fill:#ccd2d8; stroke:none;" d="M105 200L106 201L105 200M275 200L276 201L275 200z"/>
<path style="fill:#93a1ac; stroke:none;" d="M494 200L495 201L494 200M273 201L274 202L273 201M496 201L497 202L496 201M664 201L665 202L664 201M104 202L105 203L104 202M271 202L272 203L271 202z"/>
<path style="fill:#ccd2d8; stroke:none;" d="M497 202L498 203L497 202z"/>
<path style="fill:#93a1ac; stroke:none;" d="M665 202L666 203L665 202z"/>
<path style="fill:#ccd2d8; stroke:none;" d="M103 203L104 204L103 203z"/>
<path style="fill:#93a1ac; stroke:none;" d="M270 203L271 204L270 203M499 203L500 204L499 203M268 204L269 205L268 204z"/>
<path style="fill:#ccd2d8; stroke:none;" d="M500 204L501 205L500 204z"/>
<path style="fill:#93a1ac; stroke:none;" d="M666 204L667 205L666 204M102 205L103 206L102 205M267 205L268 206L267 205M502 205L503 206L502 205z"/>
<path style="fill:#ccd2d8; stroke:none;" d="M667 205L668 206L667 205M101 206L102 207L101 206M266 206L267 207L266 206M503 206L504 207L503 206z"/>
<path style="fill:#93a1ac; stroke:none;" d="M264 207L265 208L264 207M668 207L669 208L668 207M100 208L101 209L100 208z"/>
<path style="fill:#ccd2d8; stroke:none;" d="M263 208L264 209L263 208z"/>
<path style="fill:#93a1ac; stroke:none;" d="M506 208L507 209L506 208z"/>
<path style="fill:#ccd2d8; stroke:none;" d="M669 208L670 209L669 208z"/>
<path style="fill:#93a1ac; stroke:none;" d="M261 209L262 210L261 209z"/>
<path style="fill:#ccd2d8; stroke:none;" d="M507 209L508 210L507 209z"/>
<path style="fill:#93a1ac; stroke:none;" d="M99 210L100 211L99 210M260 210L261 211L260 210M509 210L510 211L509 210M670 210L671 211L670 210z"/>
<path style="fill:#ccd2d8; stroke:none;" d="M98 211L99 212L98 211M259 211L260 212L259 211z"/>
<path style="fill:#93a1ac; stroke:none;" d="M510 211L511 212L510 211z"/>
<path style="fill:#ccd2d8; stroke:none;" d="M511 212L512 213L511 212z"/>
<path style="fill:#93a1ac; stroke:none;" d="M671 212L672 213L671 212M97 213L98 214L97 213M256 213L257 214L256 213z"/>
<path style="fill:#ccd2d8; stroke:none;" d="M672 213L673 214L672 213M255 214L256 215L255 214z"/>
<path style="fill:#93a1ac; stroke:none;" d="M514 214L515 215L514 214M96 215L97 216L96 215z"/>
<path style="fill:#ccd2d8; stroke:none;" d="M254 215L255 216L254 215z"/>
<path style="fill:#93a1ac; stroke:none;" d="M515 215L516 216L515 215M673 215L674 216L673 215z"/>
<path style="fill:#ccd2d8; stroke:none;" d="M95 216L96 217L95 216M516 216L517 217L516 216z"/>
<path style="fill:#93a1ac; stroke:none;" d="M251 217L252 218L251 217z"/>
<path style="fill:#ccd2d8; stroke:none;" d="M517 217L518 218L517 217z"/>
<path style="fill:#93a1ac; stroke:none;" d="M674 217L675 218L674 217z"/>
<path style="fill:#ccd2d8; stroke:none;" d="M94 218L95 219L94 218z"/>
<path style="fill:#93a1ac; stroke:none;" d="M250 218L251 219L250 218z"/>
<path style="fill:#ccd2d8; stroke:none;" d="M249 219L250 220L249 219z"/>
<path style="fill:#93a1ac; stroke:none;" d="M520 219L521 220L520 219M675 219L676 220L675 219M93 220L94 221L93 220z"/>
<path style="fill:#ccd2d8; stroke:none;" d="M248 220L249 221L248 220z"/>
<path style="fill:#93a1ac; stroke:none;" d="M521 220L522 221L521 220z"/>
<path style="fill:#ccd2d8; stroke:none;" d="M676 220L677 221L676 220M247 221L248 222L247 221M522 221L523 222L522 221z"/>
<path style="fill:#93a1ac; stroke:none;" d="M92 222L93 223L92 222z"/>
<path style="fill:#ccd2d8; stroke:none;" d="M523 222L524 223L523 222M677 222L678 223L677 222M91 223L92 224L91 223M524 223L525 224L524 223z"/>
<path style="fill:#93a1ac; stroke:none;" d="M91 224L92 225L91 224z"/>
<path style="fill:#ccd2d8; stroke:none;" d="M525 224L526 225L525 224z"/>
<path style="fill:#93a1ac; stroke:none;" d="M678 224L679 225L678 224z"/>
<path style="fill:#ccd2d8; stroke:none;" d="M90 225L91 226L90 225z"/>
<path style="fill:#93a1ac; stroke:none;" d="M242 225L243 226L242 225z"/>
<path style="fill:#ccd2d8; stroke:none;" d="M526 225L527 226L526 225z"/>
<path style="fill:#93a1ac; stroke:none;" d="M241 226L242 227L241 226z"/>
<path style="fill:#ccd2d8; stroke:none;" d="M527 226L528 227L527 226z"/>
<path style="fill:#93a1ac; stroke:none;" d="M679 226L680 227L679 226z"/>
<path style="fill:#ccd2d8; stroke:none;" d="M89 227L90 228L89 227z"/>
<path style="fill:#93a1ac; stroke:none;" d="M240 227L241 228L240 227M239 228L240 229L239 228M680 228L681 229L680 228z"/>
<path style="fill:#ccd2d8; stroke:none;" d="M88 229L89 230L88 229z"/>
<path style="fill:#93a1ac; stroke:none;" d="M238 229L239 230L238 229M237 230L238 231L237 230M681 230L682 231L681 230M87 231L88 232L87 231M236 231L237 232L236 231z"/>
<path style="fill:#ccd2d8; stroke:none;" d="M682 231L683 232L682 231z"/>
<path style="fill:#93a1ac; stroke:none;" d="M235 232L236 233L235 232M682 232L683 233L682 232M86 233L87 234L86 233M234 233L235 234L234 233z"/>
<path style="fill:#ccd2d8; stroke:none;" d="M534 233L535 234L534 233M683 233L684 234L683 233M535 234L536 235L535 234z"/>
<path style="fill:#93a1ac; stroke:none;" d="M683 234L684 235L683 234M85 235L86 236L85 235z"/>
<path style="fill:#ccd2d8; stroke:none;" d="M536 235L537 236L536 235M684 235L685 236L684 235M537 236L538 237L537 236z"/>
<path style="fill:#93a1ac; stroke:none;" d="M684 236L685 237L684 236M84 237L85 238L84 237z"/>
<path style="fill:#ccd2d8; stroke:none;" d="M538 237L539 238L538 237M685 237L686 238L685 237M230 238L231 239L230 238z"/>
<path style="fill:#93a1ac; stroke:none;" d="M539 238L540 239L539 238M685 238L686 239L685 238z"/>
<path style="fill:#ccd2d8; stroke:none;" d="M83 239L84 240L83 239M229 239L230 240L229 239z"/>
<path style="fill:#93a1ac; stroke:none;" d="M540 239L541 240L540 239z"/>
<path style="fill:#ccd2d8; stroke:none;" d="M228 240L229 241L228 240z"/>
<path style="fill:#93a1ac; stroke:none;" d="M541 240L542 241L541 240M686 240L687 241L686 240z"/>
<path style="fill:#ccd2d8; stroke:none;" d="M82 241L83 242L82 241z"/>
<path style="fill:#93a1ac; stroke:none;" d="M227 241L228 242L227 241M226 242L227 243L226 242M687 242L688 243L687 242z"/>
<path style="fill:#ccd2d8; stroke:none;" d="M81 243L82 244L81 243M543 243L544 244L543 243z"/>
<path style="fill:#93a1ac; stroke:none;" d="M81 244L82 245L81 244z"/>
<path style="fill:#ccd2d8; stroke:none;" d="M544 244L545 245L544 244z"/>
<path style="fill:#93a1ac; stroke:none;" d="M688 244L689 245L688 244z"/>
<path style="fill:#ccd2d8; stroke:none;" d="M80 245L81 246L80 245M224 245L225 246L224 245z"/>
<path style="fill:#93a1ac; stroke:none;" d="M545 245L546 246L545 245M80 246L81 247L80 246z"/>
<path style="fill:#ccd2d8; stroke:none;" d="M223 246L224 247L223 246z"/>
<path style="fill:#93a1ac; stroke:none;" d="M546 246L547 247L546 246z"/>
<path style="fill:#ccd2d8; stroke:none;" d="M689 246L690 247L689 246z"/>
<path style="fill:#93a1ac; stroke:none;" d="M222 247L223 248L222 247M79 248L80 249L79 248M221 248L222 249L221 248z"/>
<path style="fill:#ccd2d8; stroke:none;" d="M547 248L548 249L547 248M690 248L691 249L690 248M548 249L549 250L548 249z"/>
<path style="fill:#93a1ac; stroke:none;" d="M690 249L691 250L690 249M78 250L79 251L78 250z"/>
<path style="fill:#ccd2d8; stroke:none;" d="M220 250L221 251L220 250z"/>
<path style="fill:#93a1ac; stroke:none;" d="M549 250L550 251L549 250z"/>
<path style="fill:#ccd2d8; stroke:none;" d="M691 250L692 251L691 250z"/>
<path style="fill:#93a1ac; stroke:none;" d="M219 251L220 252L219 251M691 251L692 252L691 251z"/>
<path style="fill:#ccd2d8; stroke:none;" d="M77 252L78 253L77 252z"/>
<path style="fill:#93a1ac; stroke:none;" d="M218 252L219 253L218 252M77 253L78 254L77 253z"/>
<path style="fill:#ccd2d8; stroke:none;" d="M551 253L552 254L551 253z"/>
<path style="fill:#93a1ac; stroke:none;" d="M692 253L693 254L692 253z"/>
<path style="fill:#ccd2d8; stroke:none;" d="M217 254L218 255L217 254z"/>
<path style="fill:#93a1ac; stroke:none;" d="M552 254L553 255L552 254M76 255L77 256L76 255M216 255L217 256L216 255z"/>
<path style="fill:#ccd2d8; stroke:none;" d="M693 255L694 256L693 255z"/>
<path style="fill:#93a1ac; stroke:none;" d="M215 256L216 257L215 256z"/>
<path style="fill:#ccd2d8; stroke:none;" d="M553 256L554 257L553 256z"/>
<path style="fill:#93a1ac; stroke:none;" d="M693 256L694 257L693 256z"/>
<path style="fill:#ccd2d8; stroke:none;" d="M75 257L76 258L75 257z"/>
<path style="fill:#93a1ac; stroke:none;" d="M554 257L555 258L554 257M214 258L215 259L214 258M555 258L556 259L555 258M694 258L695 259L694 258z"/>
<path style="fill:#ccd2d8; stroke:none;" d="M74 259L75 260L74 259z"/>
<path style="fill:#93a1ac; stroke:none;" d="M213 259L214 260L213 259M74 260L75 261L74 260M556 260L557 261L556 260z"/>
<path style="fill:#ccd2d8; stroke:none;" d="M695 260L696 261L695 260M212 261L213 262L212 261z"/>
<path style="fill:#93a1ac; stroke:none;" d="M557 261L558 262L557 261M695 261L696 262L695 261z"/>
<path style="fill:#ccd2d8; stroke:none;" d="M73 262L74 263L73 262z"/>
<path style="fill:#93a1ac; stroke:none;" d="M211 262L212 263L211 262M558 263L559 264L558 263M696 263L697 264L696 263z"/>
<path style="fill:#ccd2d8; stroke:none;" d="M72 264L73 265L72 264z"/>
<path style="fill:#93a1ac; stroke:none;" d="M210 264L211 265L210 264M559 264L560 265L559 264M72 265L73 266L72 265M209 265L210 266L209 265z"/>
<path style="fill:#ccd2d8; stroke:none;" d="M697 265L698 266L697 265z"/>
<path style="fill:#93a1ac; stroke:none;" d="M560 266L561 267L560 266M697 266L698 267L697 266z"/>
<path style="fill:#ccd2d8; stroke:none;" d="M71 267L72 268L71 267z"/>
<path style="fill:#93a1ac; stroke:none;" d="M208 267L209 268L208 267M71 268L72 269L71 268z"/>
<path style="fill:#ccd2d8; stroke:none;" d="M561 268L562 269L561 268z"/>
<path style="fill:#93a1ac; stroke:none;" d="M698 268L699 269L698 268z"/>
<path style="fill:#ccd2d8; stroke:none;" d="M207 269L208 270L207 269z"/>
<path style="fill:#93a1ac; stroke:none;" d="M562 269L563 270L562 269z"/>
<path style="fill:#ccd2d8; stroke:none;" d="M70 270L71 271L70 270z"/>
<path style="fill:#93a1ac; stroke:none;" d="M206 270L207 271L206 270M563 271L564 272L563 271M699 271L700 272L699 271M205 272L206 273L205 272M69 273L70 274L69 273z"/>
<path style="fill:#ccd2d8; stroke:none;" d="M564 273L565 274L564 273M700 273L701 274L700 273M204 274L205 275L204 274z"/>
<path style="fill:#93a1ac; stroke:none;" d="M565 274L566 275L565 274M700 274L701 275L700 274z"/>
<path style="fill:#ccd2d8; stroke:none;" d="M68 275L69 276L68 275z"/>
<path style="fill:#93a1ac; stroke:none;" d="M203 275L204 276L203 275z"/>
<path style="fill:#ccd2d8; stroke:none;" d="M565 275L566 276L565 275z"/>
<path style="fill:#93a1ac; stroke:none;" d="M68 276L69 277L68 276z"/>
<path style="fill:#ccd2d8; stroke:none;" d="M203 276L204 277L203 276z"/>
<path style="fill:#93a1ac; stroke:none;" d="M566 276L567 277L566 276z"/>
<path style="fill:#ccd2d8; stroke:none;" d="M701 276L702 277L701 276z"/>
<path style="fill:#93a1ac; stroke:none;" d="M202 277L203 278L202 277M701 277L702 278L701 277z"/>
<path style="fill:#ccd2d8; stroke:none;" d="M67 278L68 279L67 278z"/>
<path style="fill:#93a1ac; stroke:none;" d="M567 278L568 279L567 278M67 279L68 280L67 279M201 279L202 280L201 279z"/>
<path style="fill:#ccd2d8; stroke:none;" d="M702 279L703 280L702 279z"/>
<path style="fill:#93a1ac; stroke:none;" d="M568 280L569 281L568 280M702 280L703 281L702 280M200 281L201 282L200 281M66 282L67 283L66 282M569 282L570 283L569 282z"/>
<path style="fill:#ccd2d8; stroke:none;" d="M703 282L704 283L703 282z"/>
<path style="fill:#93a1ac; stroke:none;" d="M199 283L200 284L199 283M703 283L704 284L703 283M570 284L571 285L570 284M65.3333 285.667L65.6667 286.333L65.3333 285.667M198 285L199 286L198 285M571 286L572 287L571 286M704 286L705 287L704 286M197 287L198 288L197 287z"/>
<path style="fill:#ccd2d8; stroke:none;" d="M64 288L65 289L64 288z"/>
<path style="fill:#93a1ac; stroke:none;" d="M572 288L573 289L572 288M64 289L65 290L64 289M196 289L197 290L196 289z"/>
<path style="fill:#ccd2d8; stroke:none;" d="M705 289L706 290L705 289M196 290L197 291L196 290z"/>
<path style="fill:#93a1ac; stroke:none;" d="M573 290L574 291L573 290M705 290L706 291L705 290z"/>
<path style="fill:#ccd2d8; stroke:none;" d="M63 291L64 292L63 291z"/>
<path style="fill:#93a1ac; stroke:none;" d="M195 291L196 292L195 291M63 292L64 293L63 292z"/>
<path style="fill:#ccd2d8; stroke:none;" d="M195 292L196 293L195 292z"/>
<path style="fill:#93a1ac; stroke:none;" d="M574 292L575 293L574 292z"/>
<path style="fill:#ccd2d8; stroke:none;" d="M706 292L707 293L706 292M574 293L575 294L574 293z"/>
<path style="fill:#93a1ac; stroke:none;" d="M706 293L707 294L706 293M194 294L195 295L194 294z"/>
<path style="fill:#ccd2d8; stroke:none;" d="M62 295L63 296L62 295M575 295L576 296L575 295z"/>
<path style="fill:#93a1ac; stroke:none;" d="M62 296L63 297L62 296M193 296L194 297L193 296z"/>
<path style="fill:#ccd2d8; stroke:none;" d="M707 296L708 297L707 296M193 297L194 298L193 297z"/>
<path style="fill:#93a1ac; stroke:none;" d="M576 297L577 298L576 297M707 297L708 298L707 297z"/>
<path style="fill:#ccd2d8; stroke:none;" d="M61 299L62 300L61 299M192 299L193 300L192 299z"/>
<path style="fill:#93a1ac; stroke:none;" d="M577 299L578 300L577 299M61 300L62 301L61 300z"/>
<path style="fill:#ccd2d8; stroke:none;" d="M577 300L578 301L577 300M708 300L709 301L708 300z"/>
<path style="fill:#93a1ac; stroke:none;" d="M191 301L192 302L191 301M708 301L709 302L708 301z"/>
<path style="fill:#ccd2d8; stroke:none;" d="M60 302L61 303L60 302M191 302L192 303L191 302z"/>
<path style="fill:#93a1ac; stroke:none;" d="M578 302L579 303L578 302M60.3333 303.667L60.6667 304.333L60.3333 303.667z"/>
<path style="fill:#ccd2d8; stroke:none;" d="M578 303L579 304L578 303z"/>
<path style="fill:#93a1ac; stroke:none;" d="M190 304L191 305L190 304z"/>
<path style="fill:#ccd2d8; stroke:none;" d="M709 304L710 305L709 304z"/>
<path style="fill:#93a1ac; stroke:none;" d="M579 305L580 306L579 305M709 305L710 306L709 305M189 306L190 307L189 306z"/>
<path style="fill:#ccd2d8; stroke:none;" d="M59 307L60 308L59 307M189 307L190 308L189 307z"/>
<path style="fill:#93a1ac; stroke:none;" d="M59 308L60 309L59 308z"/>
<path style="fill:#ccd2d8; stroke:none;" d="M580 308L581 309L580 308M710 308L711 309L710 308z"/>
<path style="fill:#93a1ac; stroke:none;" d="M188 309L189 310L188 309M710 309L711 310L710 309z"/>
<path style="fill:#ccd2d8; stroke:none;" d="M188 310L189 311L188 310z"/>
<path style="fill:#93a1ac; stroke:none;" d="M581 310L582 311L581 310z"/>
<path style="fill:#ccd2d8; stroke:none;" d="M58 311L59 312L58 311M581 311L582 312L581 311z"/>
<path style="fill:#93a1ac; stroke:none;" d="M58.3333 312.667L58.6667 313.333L58.3333 312.667M187 312L188 313L187 312z"/>
<path style="fill:#ccd2d8; stroke:none;" d="M711 312L712 313L711 312M187 313L188 314L187 313z"/>
<path style="fill:#93a1ac; stroke:none;" d="M711.333 313.667L711.667 314.333L711.333 313.667M582 314L583 315L582 314M186.333 315.667L186.667 316.333L186.333 315.667z"/>
<path style="fill:#ccd2d8; stroke:none;" d="M57 316L58 317L57 316z"/>
<path style="fill:#93a1ac; stroke:none;" d="M57.3333 317.667L57.6667 318.333L57.3333 317.667M583 317L584 318L583 317z"/>
<path style="fill:#ccd2d8; stroke:none;" d="M712 317L713 318L712 317M583 318L584 319L583 318z"/>
<path style="fill:#93a1ac; stroke:none;" d="M712.333 318.667L712.667 319.333L712.333 318.667M185 319L186 320L185 319z"/>
<path style="fill:#ccd2d8; stroke:none;" d="M185 320L186 321L185 320z"/>
<path style="fill:#93a1ac; stroke:none;" d="M584 320L585 321L584 320z"/>
<path style="fill:#ccd2d8; stroke:none;" d="M56 321L57 322L56 321M584 321L585 322L584 321z"/>
<path style="fill:#93a1ac; stroke:none;" d="M56.3333 322.667L56.6667 323.333L56.3333 322.667M184.333 322.667L184.667 323.333L184.333 322.667z"/>
<path style="fill:#ccd2d8; stroke:none;" d="M713 322L714 323L713 322z"/>
<path style="fill:#93a1ac; stroke:none;" d="M713 323L714 324L713 323z"/>
<path style="fill:#ccd2d8; stroke:none;" d="M184 324L185 325L184 324M585 324L585 325L713 325C702.734 320.692 685.158 324 674 324L585 324M55 326L56 327L55 326z"/>
<path style="fill:#93a1ac; stroke:none;" d="M183.333 326.667L183.667 327.333L183.333 326.667M55 327L55 330L56 330L55 327z"/>
<path style="fill:#ccd2d8; stroke:none;" d="M183 328L184 329L183 328z"/>
<path style="fill:#93a1ac; stroke:none;" d="M182.333 330.667L182.667 331.333L182.333 330.667z"/>
<path style="fill:#ccd2d8; stroke:none;" d="M54.3333 332.667L54.6667 333.333L54.3333 332.667M182 332L183 333L182 332z"/>
<path style="fill:#93a1ac; stroke:none;" d="M54 334L54 337L55 337L54 334z"/>
<path style="fill:#ccd2d8; stroke:none;" d="M53.3333 339.667L53.6667 340.333L53.3333 339.667z"/>
<path style="fill:#93a1ac; stroke:none;" d="M53 341L53 344L54 344L53 341z"/>
<path style="fill:#ccd2d8; stroke:none;" d="M52 347L52 350L53 350L52 347z"/>
<path style="fill:#93a1ac; stroke:none;" d="M52 350L52 354L53 354L52 350z"/>
<path style="fill:#ccd2d8; stroke:none;" d="M51 358L51 361L52 361L51 358z"/>
<path style="fill:#93a1ac; stroke:none;" d="M51 361L51 370L52 370L51 361M51 397L51 406L52 406L51 397z"/>
<path style="fill:#ccd2d8; stroke:none;" d="M51 406L51 410L52 410L51 406z"/>
<path style="fill:#93a1ac; stroke:none;" d="M52 414L52 418L53 418L52 414z"/>
<path style="fill:#ccd2d8; stroke:none;" d="M52 418L52 421L53 421L52 418z"/>
<path style="fill:#93a1ac; stroke:none;" d="M53 423L53 427L54 427L53 423z"/>
<path style="fill:#ccd2d8; stroke:none;" d="M53.3333 427.667L53.6667 428.333L53.3333 427.667z"/>
<path style="fill:#93a1ac; stroke:none;" d="M54 431L54 434L55 434L54 431M186 432L186 433L385 433L366 432L326 432L186 432z"/>
<path style="fill:#ccd2d8; stroke:none;" d="M54.3333 434.667L54.6667 435.333L54.3333 434.667M186 434L187 435L186 434z"/>
<path style="fill:#93a1ac; stroke:none;" d="M186 435L187 436L186 435M55.3333 438.667L55.6667 439.333L55.3333 438.667z"/>
<path style="fill:#ccd2d8; stroke:none;" d="M187 438L188 439L187 438z"/>
<path style="fill:#93a1ac; stroke:none;" d="M187 439L188 440L187 439z"/>
<path style="fill:#ccd2d8; stroke:none;" d="M55.3333 440.667L55.6667 441.333L55.3333 440.667M188 441L189 442L188 441z"/>
<path style="fill:#93a1ac; stroke:none;" d="M188 442L189 443L188 442M56.3333 444.667L56.6667 445.333L56.3333 444.667z"/>
<path style="fill:#ccd2d8; stroke:none;" d="M189 444L190 445L189 444z"/>
<path style="fill:#93a1ac; stroke:none;" d="M189 445L190 446L189 445z"/>
<path style="fill:#ccd2d8; stroke:none;" d="M56 446L57 447L56 446M579 446L580 447L579 446z"/>
<path style="fill:#93a1ac; stroke:none;" d="M190 447L191 448L190 447M579 447L580 448L579 447M712.333 448.667L712.667 449.333L712.333 448.667M57.3333 449.667L57.6667 450.333L57.3333 449.667z"/>
<path style="fill:#ccd2d8; stroke:none;" d="M191 449L192 450L191 449M578 449L579 450L578 449z"/>
<path style="fill:#93a1ac; stroke:none;" d="M191 450L192 451L191 450z"/>
<path style="fill:#ccd2d8; stroke:none;" d="M712 450L713 451L712 450M57 451L58 452L57 451M577 451L578 452L577 451M192 452L193 453L192 452z"/>
<path style="fill:#93a1ac; stroke:none;" d="M577 452L578 453L577 452M192 453L193 454L192 453M711.333 453.667L711.667 454.333L711.333 453.667M58.3333 454.667L58.6667 455.333L58.3333 454.667z"/>
<path style="fill:#ccd2d8; stroke:none;" d="M576 454L577 455L576 454z"/>
<path style="fill:#93a1ac; stroke:none;" d="M193 455L194 456L193 455z"/>
<path style="fill:#ccd2d8; stroke:none;" d="M711 455L712 456L711 455M58 456L59 457L58 456M575 456L576 457L575 456M194 457L195 458L194 457z"/>
<path style="fill:#93a1ac; stroke:none;" d="M575 457L576 458L575 457M710.333 457.667L710.667 458.333L710.333 457.667M59 459L60 460L59 459z"/>
<path style="fill:#ccd2d8; stroke:none;" d="M195 459L196 460L195 459z"/>
<path style="fill:#93a1ac; stroke:none;" d="M574 459L575 460L574 459z"/>
<path style="fill:#ccd2d8; stroke:none;" d="M710 459L711 460L710 459M59 460L60 461L59 460z"/>
<path style="fill:#93a1ac; stroke:none;" d="M195 460L196 461L195 460z"/>
<path style="fill:#ccd2d8; stroke:none;" d="M196 461L197 462L196 461M573 461L574 462L573 461z"/>
<path style="fill:#93a1ac; stroke:none;" d="M196 462L197 463L196 462M709 462L710 463L709 462M60 463L61 464L60 463z"/>
<path style="fill:#ccd2d8; stroke:none;" d="M572 463L573 464L572 463M709 463L710 464L709 463M60 464L61 465L60 464z"/>
<path style="fill:#93a1ac; stroke:none;" d="M197 464L198 465L197 464M572 464L573 465L572 464z"/>
<path style="fill:#ccd2d8; stroke:none;" d="M571 465L572 466L571 465z"/>
<path style="fill:#93a1ac; stroke:none;" d="M198 466L199 467L198 466M571 466L572 467L571 466M708 466L709 467L708 466M61 467L62 468L61 467z"/>
<path style="fill:#ccd2d8; stroke:none;" d="M570 467L571 468L570 467M708 467L709 468L708 467M61 468L62 469L61 468z"/>
<path style="fill:#93a1ac; stroke:none;" d="M199 468L200 469L199 468M570 468L571 469L570 468z"/>
<path style="fill:#ccd2d8; stroke:none;" d="M569 469L570 470L569 469z"/>
<path style="fill:#93a1ac; stroke:none;" d="M200 470L201 471L200 470M569 470L570 471L569 470M707 470L708 471L707 470M62 471L63 472L62 471z"/>
<path style="fill:#ccd2d8; stroke:none;" d="M568 471L569 472L568 471M707 471L708 472L707 471M62 472L63 473L62 472z"/>
<path style="fill:#93a1ac; stroke:none;" d="M201 472L202 473L201 472M568 472L569 473L568 472z"/>
<path style="fill:#ccd2d8; stroke:none;" d="M567 473L568 474L567 473z"/>
<path style="fill:#93a1ac; stroke:none;" d="M706.333 473.667L706.667 474.333L706.333 473.667M63.3333 474.667L63.6667 475.333L63.3333 474.667M202 474L203 475L202 474z"/>
<path style="fill:#ccd2d8; stroke:none;" d="M566 475L567 476L566 475M706 475L707 476L706 475M63 476L64 477L63 476z"/>
<path style="fill:#93a1ac; stroke:none;" d="M203 476L204 477L203 476z"/>
<path style="fill:#ccd2d8; stroke:none;" d="M204 477L205 478L204 477z"/>
<path style="fill:#93a1ac; stroke:none;" d="M565 477L566 478L565 477M705 477L706 478L705 477M64 478L65 479L64 478z"/>
<path style="fill:#ccd2d8; stroke:none;" d="M705 478L706 479L705 478M64 479L65 480L64 479M205 479L206 480L205 479z"/>
<path style="fill:#93a1ac; stroke:none;" d="M564 479L565 480L564 479z"/>
<path style="fill:#ccd2d8; stroke:none;" d="M563 480L564 481L563 480z"/>
<path style="fill:#93a1ac; stroke:none;" d="M704.333 480.667L704.667 481.333L704.333 480.667M65 481L66 482L65 481M206 481L207 482L206 481M563 481L564 482L563 481z"/>
<path style="fill:#ccd2d8; stroke:none;" d="M65 482L66 483L65 482M207 482L208 483L207 482M562 482L563 483L562 482z"/>
<path style="fill:#93a1ac; stroke:none;" d="M207 483L208 484L207 483M66.3333 484.667L66.6667 485.333L66.3333 484.667z"/>
<path style="fill:#ccd2d8; stroke:none;" d="M208 484L209 485L208 484z"/>
<path style="fill:#93a1ac; stroke:none;" d="M561 484L562 485L561 484M703 484L704 485L703 484z"/>
<path style="fill:#ccd2d8; stroke:none;" d="M560 485L561 486L560 485M703 485L704 486L703 485z"/>
<path style="fill:#93a1ac; stroke:none;" d="M209 486L210 487L209 486z"/>
<path style="fill:#ccd2d8; stroke:none;" d="M210 487L211 488L210 487z"/>
<path style="fill:#93a1ac; stroke:none;" d="M559 487L560 488L559 487M702 487L703 488L702 487M67 488L68 489L67 488z"/>
<path style="fill:#ccd2d8; stroke:none;" d="M702 488L703 489L702 488z"/>
<path style="fill:#93a1ac; stroke:none;" d="M211 489L212 490L211 489M558 489L559 490L558 489z"/>
<path style="fill:#ccd2d8; stroke:none;" d="M212 490L213 491L212 490z"/>
<path style="fill:#93a1ac; stroke:none;" d="M557 490L558 491L557 490M701 490L702 491L701 490M68 491L69 492L68 491z"/>
<path style="fill:#ccd2d8; stroke:none;" d="M701 491L702 492L701 491z"/>
<path style="fill:#93a1ac; stroke:none;" d="M213 492L214 493L213 492M556 492L557 493L556 492z"/>
<path style="fill:#ccd2d8; stroke:none;" d="M214 493L215 494L214 493z"/>
<path style="fill:#93a1ac; stroke:none;" d="M555 493L556 494L555 493M700 493L701 494L700 493M69 494L70 495L69 494z"/>
<path style="fill:#ccd2d8; stroke:none;" d="M554 494L555 495L554 494M700 494L701 495L700 494z"/>
<path style="fill:#93a1ac; stroke:none;" d="M215 495L216 496L215 495M70 496L71 497L70 496z"/>
<path style="fill:#ccd2d8; stroke:none;" d="M216 496L217 497L216 496z"/>
<path style="fill:#93a1ac; stroke:none;" d="M553 496L554 497L553 496M699 496L700 497L699 496z"/>
<path style="fill:#ccd2d8; stroke:none;" d="M70 497L71 498L70 497M552 497L553 498L552 497z"/>
<path style="fill:#93a1ac; stroke:none;" d="M217 498L218 499L217 498M698 498L699 499L698 498M71 499L72 500L71 499M218 499L219 500L218 499M551 499L552 500L551 499z"/>
<path style="fill:#ccd2d8; stroke:none;" d="M698 499L699 500L698 499M71 500L72 501L71 500M219 500L220 501L219 500z"/>
<path style="fill:#93a1ac; stroke:none;" d="M550 500L551 501L550 500z"/>
<path style="fill:#ccd2d8; stroke:none;" d="M549 501L550 502L549 501z"/>
<path style="fill:#93a1ac; stroke:none;" d="M697 501L698 502L697 501M72 502L73 503L72 502M220 502L221 503L220 502z"/>
<path style="fill:#ccd2d8; stroke:none;" d="M697 502L698 503L697 502z"/>
<path style="fill:#93a1ac; stroke:none;" d="M221 503L222 504L221 503M548 503L549 504L548 503M73 504L74 505L73 504z"/>
<path style="fill:#ccd2d8; stroke:none;" d="M222 504L223 505L222 504z"/>
<path style="fill:#93a1ac; stroke:none;" d="M547 504L548 505L547 504M696 504L697 505L696 504z"/>
<path style="fill:#ccd2d8; stroke:none;" d="M73 505L74 506L73 505M223 505L224 506L223 505M546 505L547 506L546 505M545 506L546 507L545 506z"/>
<path style="fill:#93a1ac; stroke:none;" d="M695 506L696 507L695 506M74 507L75 508L74 507M224 507L225 508L224 507z"/>
<path style="fill:#ccd2d8; stroke:none;" d="M695 507L696 508L695 507z"/>
<path style="fill:#93a1ac; stroke:none;" d="M225 508L226 509L225 508M75 509L76 510L75 509z"/>
<path style="fill:#ccd2d8; stroke:none;" d="M226 509L227 510L226 509z"/>
<path style="fill:#93a1ac; stroke:none;" d="M543 509L544 510L543 509M694 509L695 510L694 509z"/>
<path style="fill:#ccd2d8; stroke:none;" d="M75 510L76 511L75 510M227 510L228 511L227 510z"/>
<path style="fill:#93a1ac; stroke:none;" d="M542 510L543 511L542 510z"/>
<path style="fill:#ccd2d8; stroke:none;" d="M228 511L229 512L228 511M541 511L542 512L541 511z"/>
<path style="fill:#93a1ac; stroke:none;" d="M693 511L694 512L693 511M76 512L77 513L76 512z"/>
<path style="fill:#ccd2d8; stroke:none;" d="M540 512L541 513L540 512M693 512L694 513L693 512M539 513L540 514L539 513z"/>
<path style="fill:#93a1ac; stroke:none;" d="M77 514L78 515L77 514M230 514L231 515L230 514M692 514L693 515L692 514z"/>
<path style="fill:#ccd2d8; stroke:none;" d="M77 515L78 516L77 515z"/>
<path style="fill:#93a1ac; stroke:none;" d="M231 515L232 516L231 515M232 516L233 517L232 516M691 516L692 517L691 516z"/>
<path style="fill:#ccd2d8; stroke:none;" d="M78 517L79 518L78 517M233 517L234 518L233 517z"/>
<path style="fill:#93a1ac; stroke:none;" d="M536 517L537 518L536 517z"/>
<path style="fill:#ccd2d8; stroke:none;" d="M234 518L235 519L234 518z"/>
<path style="fill:#93a1ac; stroke:none;" d="M535 518L536 519L535 518M690 518L691 519L690 518M79 519L80 520L79 519z"/>
<path style="fill:#ccd2d8; stroke:none;" d="M235 519L236 520L235 519z"/>
<path style="fill:#93a1ac; stroke:none;" d="M534 519L535 520L534 519z"/>
<path style="fill:#ccd2d8; stroke:none;" d="M690 519L691 520L690 519M236 520L237 521L236 520z"/>
<path style="fill:#93a1ac; stroke:none;" d="M533 520L534 521L533 520M80 521L81 522L80 521z"/>
<path style="fill:#ccd2d8; stroke:none;" d="M237 521L238 522L237 521z"/>
<path style="fill:#93a1ac; stroke:none;" d="M532 521L533 522L532 521z"/>
<path style="fill:#ccd2d8; stroke:none;" d="M689 521L690 522L689 521M238 522L239 523L238 522z"/>
<path style="fill:#93a1ac; stroke:none;" d="M531 522L532 523L531 522M81 523L82 524L81 523z"/>
<path style="fill:#ccd2d8; stroke:none;" d="M239 523L240 524L239 523z"/>
<path style="fill:#93a1ac; stroke:none;" d="M530 523L531 524L530 523M688 523L689 524L688 523z"/>
<path style="fill:#ccd2d8; stroke:none;" d="M81 524L82 525L81 524M240 524L241 525L240 524z"/>
<path style="fill:#93a1ac; stroke:none;" d="M529 524L530 525L529 524M82 525L83 526L82 525z"/>
<path style="fill:#ccd2d8; stroke:none;" d="M241 525L242 526L241 525z"/>
<path style="fill:#93a1ac; stroke:none;" d="M528 525L529 526L528 525M687 525L688 526L687 525z"/>
<path style="fill:#ccd2d8; stroke:none;" d="M82 526L83 527L82 526M242 526L243 527L242 526z"/>
<path style="fill:#93a1ac; stroke:none;" d="M527 526L528 527L527 526z"/>
<path style="fill:#ccd2d8; stroke:none;" d="M243 527L244 528L243 527z"/>
<path style="fill:#93a1ac; stroke:none;" d="M526 527L527 528L526 527M686 527L687 528L686 527z"/>
<path style="fill:#ccd2d8; stroke:none;" d="M83 528L84 529L83 528z"/>
<path style="fill:#93a1ac; stroke:none;" d="M244 528L245 529L244 528M525 528L526 529L525 528M245 529L246 530L245 529M685 529L686 530L685 529z"/>
<path style="fill:#ccd2d8; stroke:none;" d="M84 530L85 531L84 530z"/>
<path style="fill:#93a1ac; stroke:none;" d="M246 530L247 531L246 530z"/>
<path style="fill:#ccd2d8; stroke:none;" d="M521 531L522 532L521 531z"/>
<path style="fill:#93a1ac; stroke:none;" d="M684 531L685 532L684 531z"/>
<path style="fill:#ccd2d8; stroke:none;" d="M85 532L86 533L85 532M520 532L521 533L520 532M250 533L251 534L250 533M519 533L520 534L519 533z"/>
<path style="fill:#93a1ac; stroke:none;" d="M683 533L684 534L683 533z"/>
<path style="fill:#ccd2d8; stroke:none;" d="M86 534L87 535L86 534M251 534L252 535L251 534z"/>
<path style="fill:#93a1ac; stroke:none;" d="M518 534L519 535L518 534M252 535L253 536L252 535M517 535L518 536L517 535M682 535L683 536L682 535z"/>
<path style="fill:#ccd2d8; stroke:none;" d="M87 536L88 537L87 536z"/>
<path style="fill:#93a1ac; stroke:none;" d="M253 536L254 537L253 536z"/>
<path style="fill:#ccd2d8; stroke:none;" d="M514 537L515 538L514 537z"/>
<path style="fill:#93a1ac; stroke:none;" d="M681 537L682 538L681 537z"/>
<path style="fill:#ccd2d8; stroke:none;" d="M88 538L89 539L88 538M256 538L257 539L256 538M513 538L514 539L513 538z"/>
<path style="fill:#93a1ac; stroke:none;" d="M257 539L258 540L257 539M512 539L513 540L512 539M680 539L681 540L680 539z"/>
<path style="fill:#ccd2d8; stroke:none;" d="M89 540L90 541L89 540z"/>
<path style="fill:#93a1ac; stroke:none;" d="M258 540L259 541L258 540M90 541L91 542L90 541z"/>
<path style="fill:#ccd2d8; stroke:none;" d="M260 541L261 542L260 541M509 541L510 542L509 541z"/>
<path style="fill:#93a1ac; stroke:none;" d="M679 541L680 542L679 541z"/>
<path style="fill:#ccd2d8; stroke:none;" d="M90 542L91 543L90 542M261 542L262 543L261 542z"/>
<path style="fill:#93a1ac; stroke:none;" d="M508 542L509 543L508 542M91 543L92 544L91 543M262 543L263 544L262 543z"/>
<path style="fill:#ccd2d8; stroke:none;" d="M678 543L679 544L678 543M264 544L265 545L264 544M505 544L506 545L505 544z"/>
<path style="fill:#93a1ac; stroke:none;" d="M92 545L93 546L92 545M265 545L266 546L265 545M504 545L505 546L504 545z"/>
<path style="fill:#ccd2d8; stroke:none;" d="M677 545L678 546L677 545z"/>
<path style="fill:#93a1ac; stroke:none;" d="M266 546L267 547L266 546z"/>
<path style="fill:#ccd2d8; stroke:none;" d="M502 546L503 547L502 546z"/>
<path style="fill:#93a1ac; stroke:none;" d="M676 546L677 547L676 546M93 547L94 548L93 547M268 547L269 548L268 547M501 547L502 548L501 547z"/>
<path style="fill:#ccd2d8; stroke:none;" d="M676 547L677 548L676 547z"/>
<path style="fill:#93a1ac; stroke:none;" d="M269 548L270 549L269 548z"/>
<path style="fill:#ccd2d8; stroke:none;" d="M499 548L500 549L499 548z"/>
<path style="fill:#93a1ac; stroke:none;" d="M675 548L676 549L675 548z"/>
<path style="fill:#ccd2d8; stroke:none;" d="M94 549L95 550L94 549M271 549L272 550L271 549z"/>
<path style="fill:#93a1ac; stroke:none;" d="M498 549L499 550L498 549M95 550L96 551L95 550M272 550L273 551L272 550z"/>
<path style="fill:#ccd2d8; stroke:none;" d="M496 550L497 551L496 550z"/>
<path style="fill:#93a1ac; stroke:none;" d="M674 550L675 551L674 550z"/>
<path style="fill:#ccd2d8; stroke:none;" d="M95 551L96 552L95 551z"/>
<path style="fill:#93a1ac; stroke:none;" d="M274 551L275 552L274 551M495 551L496 552L495 551M96 552L97 553L96 552z"/>
<path style="fill:#ccd2d8; stroke:none;" d="M276 552L277 553L276 552M493 552L494 553L493 552M673 552L674 553L673 552z"/>
<path style="fill:#93a1ac; stroke:none;" d="M277 553L278 554L277 553M492 553L493 554L492 553M672 553L673 554L672 553M97 554L98 555L97 554z"/>
<path style="fill:#ccd2d8; stroke:none;" d="M279 554L280 555L279 554z"/>
<path style="fill:#93a1ac; stroke:none;" d="M490 554L491 555L490 554z"/>
<path style="fill:#ccd2d8; stroke:none;" d="M672 554L673 555L672 554z"/>
<path style="fill:#93a1ac; stroke:none;" d="M280 555L281 556L280 555z"/>
<path style="fill:#ccd2d8; stroke:none;" d="M281 555L282 556L281 555M488 555L489 556L488 555z"/>
<path style="fill:#93a1ac; stroke:none;" d="M671 555L672 556L671 555z"/>
<path style="fill:#ccd2d8; stroke:none;" d="M98 556L99 557L98 556z"/>
<path style="fill:#93a1ac; stroke:none;" d="M282 556L283 557L282 556z"/>
<path style="fill:#ccd2d8; stroke:none;" d="M486 556L487 557L486 556z"/>
<path style="fill:#93a1ac; stroke:none;" d="M487 556L488 557L487 556M99 557L100 558L99 557M284 557L285 558L284 557M485 557L486 558L485 557z"/>
<path style="fill:#ccd2d8; stroke:none;" d="M670 557L671 558L670 557M286 558L287 559L286 558z"/>
<path style="fill:#93a1ac; stroke:none;" d="M483 558L484 559L483 558M669 558L670 559L669 558z"/>
<path style="fill:#ccd2d8; stroke:none;" d="M100 559L101 560L100 559M288 559L289 560L288 559z"/>
<path style="fill:#93a1ac; stroke:none;" d="M481 559L482 560L481 559M101 560L102 561L101 560M289 560L290 561L289 560z"/>
<path style="fill:#ccd2d8; stroke:none;" d="M290 560L291 561L290 560M479 560L480 561L479 560z"/>
<path style="fill:#93a1ac; stroke:none;" d="M668 560L669 561L668 560M291 561L292 562L291 561z"/>
<path style="fill:#ccd2d8; stroke:none;" d="M292 561L293 562L292 561M477 561L478 562L477 561z"/>
<path style="fill:#93a1ac; stroke:none;" d="M102 562L103 563L102 562M293 562L294 563L293 562z"/>
<path style="fill:#ccd2d8; stroke:none;" d="M294 562L295 563L294 562M475 562L476 563L475 562M667 562L668 563L667 562z"/>
<path style="fill:#93a1ac; stroke:none;" d="M295 563L296 564L295 563z"/>
<path style="fill:#ccd2d8; stroke:none;" d="M296 563L297 564L296 563M473 563L474 564L473 563z"/>
<path style="fill:#93a1ac; stroke:none;" d="M666 563L667 564L666 563z"/>
<path style="fill:#ccd2d8; stroke:none;" d="M103 564L104 565L103 564M298 564L299 565L298 564z"/>
<path style="fill:#93a1ac; stroke:none;" d="M471 564L472 565L471 564M104 565L105 566L104 565M300 565L301 566L300 565M469 565L470 566L469 565z"/>
<path style="fill:#ccd2d8; stroke:none;" d="M665 565L666 566L665 565z"/>
<path style="fill:#93a1ac; stroke:none;" d="M302 566L303 567L302 566z"/>
<path style="fill:#ccd2d8; stroke:none;" d="M466 566L467 567L466 566z"/>
<path style="fill:#93a1ac; stroke:none;" d="M467 566L468 567L467 566M664 566L665 567L664 566z"/>
<path style="fill:#ccd2d8; stroke:none;" d="M105 567L106 568L105 567z"/>
<path style="fill:#93a1ac; stroke:none;" d="M304 567L305 568L304 567z"/>
<path style="fill:#ccd2d8; stroke:none;" d="M305 567L306 568L305 567M464 567L465 568L464 567z"/>
<path style="fill:#93a1ac; stroke:none;" d="M106 568L107 569L106 568M307 568L308 569L307 568M462 568L463 569L462 568z"/>
<path style="fill:#ccd2d8; stroke:none;" d="M663 568L664 569L663 568z"/>
<path style="fill:#93a1ac; stroke:none;" d="M309 569L310 570L309 569z"/>
<path style="fill:#ccd2d8; stroke:none;" d="M310 569L311 570L310 569M459 569L460 570L459 569z"/>
<path style="fill:#93a1ac; stroke:none;" d="M460 569L461 570L460 569M662 569L663 570L662 569z"/>
<path style="fill:#ccd2d8; stroke:none;" d="M107 570L108 571L107 570z"/>
<path style="fill:#93a1ac; stroke:none;" d="M312 570L313 571L312 570z"/>
<path style="fill:#ccd2d8; stroke:none;" d="M313 570L314 571L313 570M456 570L457 571L456 570z"/>
<path style="fill:#93a1ac; stroke:none;" d="M457 570L458 571L457 570M108 571L109 572L108 571M315 571L316 572L315 571M454 571L455 572L454 571z"/>
<path style="fill:#ccd2d8; stroke:none;" d="M661 571L662 572L661 571z"/>
<path style="fill:#93a1ac; stroke:none;" d="M317 572L318 573L317 572z"/>
<path style="fill:#ccd2d8; stroke:none;" d="M318 572L319 573L318 572z"/>
<path style="fill:#93a1ac; stroke:none;" d="M451 572L452 573L451 572M660 572L661 573L660 572z"/>
<path style="fill:#ccd2d8; stroke:none;" d="M109 573L110 574L109 573z"/>
<path style="fill:#93a1ac; stroke:none;" d="M320 573L321 574L320 573z"/>
<path style="fill:#ccd2d8; stroke:none;" d="M321 573L322 574L321 573z"/>
<path style="fill:#93a1ac; stroke:none;" d="M448 573L449 574L448 573M110 574L111 575L110 574M324 574L325 575L324 574z"/>
<path style="fill:#ccd2d8; stroke:none;" d="M325 574L326 575L325 574M444 574L445 575L444 574z"/>
<path style="fill:#93a1ac; stroke:none;" d="M445 574L446 575L445 574z"/>
<path style="fill:#ccd2d8; stroke:none;" d="M659 574L660 575L659 574z"/>
<path style="fill:#010101; stroke:none;" d="M51 575L51 718L194 718L194 717C151.424 698.654 111.716 657.805 83.662 622C72.3596 607.574 63.8442 587.669 51 575z"/>
<path style="fill:#93a1ac; stroke:none;" d="M327 575L328 576L327 575z"/>
<path style="fill:#ccd2d8; stroke:none;" d="M328 575L329 576L328 575M441 575L442 576L441 575z"/>
<path style="fill:#93a1ac; stroke:none;" d="M442 575L443 576L442 575M658 575L659 576L658 575z"/>
<path style="fill:#ccd2d8; stroke:none;" d="M111 576L112 577L111 576z"/>
<path style="fill:#93a1ac; stroke:none;" d="M330.667 576.333L331.333 576.667L330.667 576.333z"/>
<path style="fill:#ccd2d8; stroke:none;" d="M332 576L333 577L332 576M437 576L438 577L437 576z"/>
<path style="fill:#93a1ac; stroke:none;" d="M438 576L439 577L438 576M112 577L113 578L112 577M334.667 577.333L335.333 577.667L334.667 577.333z"/>
<path style="fill:#ccd2d8; stroke:none;" d="M336 577L337 578L336 577M433 577L434 578L433 577z"/>
<path style="fill:#93a1ac; stroke:none;" d="M434.667 577.333L435.333 577.667L434.667 577.333z"/>
<path style="fill:#ccd2d8; stroke:none;" d="M657 577L658 578L657 577z"/>
<path style="fill:#93a1ac; stroke:none;" d="M113 578L114 579L113 578M338.667 578.333L339.333 578.667L338.667 578.333z"/>
<path style="fill:#ccd2d8; stroke:none;" d="M340 578L341 579L340 578M429 578L430 579L429 578z"/>
<path style="fill:#93a1ac; stroke:none;" d="M430.667 578.333L431.333 578.667L430.667 578.333M656 578L657 579L656 578M343.667 579.333L344.333 579.667L343.667 579.333z"/>
<path style="fill:#ccd2d8; stroke:none;" d="M345 579L346 580L345 579M424 579L425 580L424 579z"/>
<path style="fill:#93a1ac; stroke:none;" d="M425.667 579.333L426.333 579.667L425.667 579.333M655 579L656 580L655 579z"/>
<path style="fill:#ccd2d8; stroke:none;" d="M114 580L115 581L114 580z"/>
<path style="fill:#93a1ac; stroke:none;" d="M348.667 580.333L349.333 580.667L348.667 580.333z"/>
<path style="fill:#ccd2d8; stroke:none;" d="M350.667 580.333L351.333 580.667L350.667 580.333M418.667 580.333L419.333 580.667L418.667 580.333z"/>
<path style="fill:#93a1ac; stroke:none;" d="M420.667 580.333L421.333 580.667L420.667 580.333M115 581L116 582L115 581M354 581L354 582L357 582L354 581z"/>
<path style="fill:#ccd2d8; stroke:none;" d="M357.667 581.333L358.333 581.667L357.667 581.333M411.667 581.333L412.333 581.667L411.667 581.333z"/>
<path style="fill:#93a1ac; stroke:none;" d="M413 581L413 582L416 582L413 581z"/>
<path style="fill:#ccd2d8; stroke:none;" d="M654 581L655 582L654 581z"/>
<path style="fill:#93a1ac; stroke:none;" d="M116 582L117 583L116 582M361 582L361 583L366 583L361 582z"/>
<path style="fill:#ccd2d8; stroke:none;" d="M366.667 582.333L367.333 582.667L366.667 582.333M401 582L401 583L404 583L401 582z"/>
<path style="fill:#93a1ac; stroke:none;" d="M404 582L404 583L409 583L404 582M653 582L654 583L653 582M373 583L373 584L397 584L373 583z"/>
<path style="fill:#010101; stroke:none;" d="M713 583C693.32 624.6 653.226 662.943 617 690.127C604.271 699.679 590.693 710.669 576 717L576 718L714 718L714 624C714 612.318 717.508 593.742 713 583z"/>
<path style="fill:#ccd2d8; stroke:none;" d="M117 584L118 585L117 584z"/>
<path style="fill:#93a1ac; stroke:none;" d="M118 585L119 586L118 585z"/>
<path style="fill:#ccd2d8; stroke:none;" d="M651 585L652 586L651 585z"/>
<path style="fill:#93a1ac; stroke:none;" d="M119 586L120 587L119 586M650 586L651 587L650 586M649 587L650 588L649 587z"/>
<path style="fill:#ccd2d8; stroke:none;" d="M120 588L121 589L120 588z"/>
<path style="fill:#93a1ac; stroke:none;" d="M121 589L122 590L121 589z"/>
<path style="fill:#ccd2d8; stroke:none;" d="M648 589L649 590L648 589z"/>
<path style="fill:#93a1ac; stroke:none;" d="M122 590L123 591L122 590M647 590L648 591L647 590M646 591L647 592L646 591z"/>
<path style="fill:#ccd2d8; stroke:none;" d="M123 592L124 593L123 592M124 593L125 594L124 593z"/>
<path style="fill:#93a1ac; stroke:none;" d="M125 594L126 595L125 594z"/>
<path style="fill:#ccd2d8; stroke:none;" d="M644 594L645 595L644 594z"/>
<path style="fill:#93a1ac; stroke:none;" d="M126 595L127 596L126 595z"/>
<path style="fill:#ccd2d8; stroke:none;" d="M643 595L644 596L643 595z"/>
<path style="fill:#93a1ac; stroke:none;" d="M642 596L643 597L642 596M641 597L642 598L641 597z"/>
<path style="fill:#ccd2d8; stroke:none;" d="M128 598L129 599L128 598M129 599L130 600L129 599M640 599L641 600L640 599z"/>
<path style="fill:#93a1ac; stroke:none;" d="M130 600L131 601L130 600z"/>
<path style="fill:#ccd2d8; stroke:none;" d="M639 600L640 601L639 600z"/>
<path style="fill:#93a1ac; stroke:none;" d="M131 601L132 602L131 601z"/>
<path style="fill:#ccd2d8; stroke:none;" d="M638 601L639 602L638 601z"/>
<path style="fill:#93a1ac; stroke:none;" d="M132 602L133 603L132 602M637 602L638 603L637 602M636 603L637 604L636 603z"/>
<path style="fill:#ccd2d8; stroke:none;" d="M134 605L135 606L134 605M135 606L136 607L135 606M136 607L137 608L136 607M633 607L634 608L633 607M137 608L138 609L137 608M632 608L633 609L632 608z"/>
<path style="fill:#93a1ac; stroke:none;" d="M138 609L139 610L138 609z"/>
<path style="fill:#ccd2d8; stroke:none;" d="M631 609L632 610L631 609z"/>
<path style="fill:#93a1ac; stroke:none;" d="M139 610L140 611L139 610z"/>
<path style="fill:#ccd2d8; stroke:none;" d="M630 610L631 611L630 610z"/>
<path style="fill:#93a1ac; stroke:none;" d="M140 611L141 612L140 611z"/>
<path style="fill:#ccd2d8; stroke:none;" d="M629 611L630 612L629 611z"/>
<path style="fill:#93a1ac; stroke:none;" d="M141 612L142 613L141 612M628 612L629 613L628 612M627 613L628 614L627 613M626 614L627 615L626 614M625 615L626 616L625 615M624 616L625 617L624 616M623 617L624 618L623 617M622 618L623 619L622 618M619 621L620 622L619 621M618 622L619 623L618 622M617 623L618 624L617 623M616 624L617 625L616 624M615 625L616 626L615 625M614 626L615 627L614 626M156 627L157 628L156 627M613 627L614 628L613 627M157 628L158 629L157 628z"/>
<path style="fill:#ccd2d8; stroke:none;" d="M612 628L613 629L612 628z"/>
<path style="fill:#93a1ac; stroke:none;" d="M158 629L159 630L158 629z"/>
<path style="fill:#ccd2d8; stroke:none;" d="M611 629L612 630L611 629z"/>
<path style="fill:#93a1ac; stroke:none;" d="M159 630L160 631L159 630z"/>
<path style="fill:#ccd2d8; stroke:none;" d="M610 630L611 631L610 630M160 631L161 632L160 631M609 631L610 632L609 631M161 632L162 633L161 632M608 632L609 633L608 632M162 633L163 634L162 633M163 634L164 635L163 634z"/>
<path style="fill:#93a1ac; stroke:none;" d="M604 635L605 636L604 635M166 636L167 637L166 636M603 636L604 637L603 636M167 637L168 638L167 637z"/>
<path style="fill:#ccd2d8; stroke:none;" d="M602 637L603 638L602 637z"/>
<path style="fill:#93a1ac; stroke:none;" d="M168 638L169 639L168 638z"/>
<path style="fill:#ccd2d8; stroke:none;" d="M601 638L602 639L601 638M169 639L170 640L169 639M600 639L601 640L600 639M170 640L171 641L170 640z"/>
<path style="fill:#93a1ac; stroke:none;" d="M597 641L598 642L597 641M173 642L174 643L173 642M596 642L597 643L596 642M174 643L175 644L174 643z"/>
<path style="fill:#ccd2d8; stroke:none;" d="M595 643L596 644L595 643M175 644L176 645L175 644M594 644L595 645L594 644z"/>
<path style="fill:#93a1ac; stroke:none;" d="M592 645L593 646L592 645M178 646L179 647L178 646M591 646L592 647L591 646M179 647L180 648L179 647z"/>
<path style="fill:#ccd2d8; stroke:none;" d="M590 647L591 648L590 647M180 648L181 649L180 648z"/>
<path style="fill:#93a1ac; stroke:none;" d="M182 649L183 650L182 649M587 649L588 650L587 649M183 650L184 651L183 650z"/>
<path style="fill:#ccd2d8; stroke:none;" d="M586 650L587 651L586 650M184 651L185 652L184 651z"/>
<path style="fill:#93a1ac; stroke:none;" d="M186 652L187 653L186 652M583 652L584 653L583 652M187 653L188 654L187 653z"/>
<path style="fill:#ccd2d8; stroke:none;" d="M582 653L583 654L582 653M188 654L189 655L188 654z"/>
<path style="fill:#93a1ac; stroke:none;" d="M580 654L581 655L580 654M190 655L191 656L190 655M579 655L580 656L579 655z"/>
<path style="fill:#ccd2d8; stroke:none;" d="M191 656L192 657L191 656M578 656L579 657L578 656z"/>
<path style="fill:#93a1ac; stroke:none;" d="M193 657L194 658L193 657M576 657L577 658L576 657M194 658L195 659L194 658z"/>
<path style="fill:#ccd2d8; stroke:none;" d="M575 658L576 659L575 658M195 659L196 660L195 659z"/>
<path style="fill:#93a1ac; stroke:none;" d="M573 659L574 660L573 659M197 660L198 661L197 660M572 660L573 661L572 660z"/>
<path style="fill:#ccd2d8; stroke:none;" d="M198 661L199 662L198 661z"/>
<path style="fill:#93a1ac; stroke:none;" d="M570 661L571 662L570 661M200 662L201 663L200 662M569 662L570 663L569 662z"/>
<path style="fill:#ccd2d8; stroke:none;" d="M201 663L202 664L201 663z"/>
<path style="fill:#93a1ac; stroke:none;" d="M567 663L568 664L567 663M203 664L204 665L203 664z"/>
<path style="fill:#ccd2d8; stroke:none;" d="M566 664L567 665L566 664M204 665L205 666L204 665z"/>
<path style="fill:#93a1ac; stroke:none;" d="M564 665L565 666L564 665M206 666L207 667L206 666z"/>
<path style="fill:#ccd2d8; stroke:none;" d="M563 666L564 667L563 666z"/>
<path style="fill:#93a1ac; stroke:none;" d="M208 667L209 668L208 667M561 667L562 668L561 667z"/>
<path style="fill:#ccd2d8; stroke:none;" d="M209 668L210 669L209 668M560 668L561 669L560 668z"/>
<path style="fill:#93a1ac; stroke:none;" d="M211 669L212 670L211 669M558 669L559 670L558 669M213 670L214 671L213 670M556 670L557 671L556 670z"/>
<path style="fill:#ccd2d8; stroke:none;" d="M214 671L215 672L214 671M555 671L556 672L555 671z"/>
<path style="fill:#93a1ac; stroke:none;" d="M216 672L217 673L216 672z"/>
<path style="fill:#ccd2d8; stroke:none;" d="M553 672L554 673L553 672z"/>
<path style="fill:#93a1ac; stroke:none;" d="M218 673L219 674L218 673M551 673L552 674L551 673z"/>
<path style="fill:#ccd2d8; stroke:none;" d="M219 674L220 675L219 674z"/>
<path style="fill:#93a1ac; stroke:none;" d="M549 674L550 675L549 674z"/>
<path style="fill:#ccd2d8; stroke:none;" d="M221 675L222 676L221 675M548 675L549 676L548 675z"/>
<path style="fill:#93a1ac; stroke:none;" d="M223 676L224 677L223 676z"/>
<path style="fill:#ccd2d8; stroke:none;" d="M546 676L547 677L546 676z"/>
<path style="fill:#93a1ac; stroke:none;" d="M225 677L226 678L225 677M544 677L545 678L544 677M227 678L228 679L227 678M542 678L543 679L542 678z"/>
<path style="fill:#ccd2d8; stroke:none;" d="M228 679L229 680L228 679z"/>
<path style="fill:#93a1ac; stroke:none;" d="M229 679L230 680L229 679M540 679L541 680L540 679z"/>
<path style="fill:#ccd2d8; stroke:none;" d="M230 680L231 681L230 680z"/>
<path style="fill:#93a1ac; stroke:none;" d="M231 680L232 681L231 680M538 680L539 681L538 680z"/>
<path style="fill:#ccd2d8; stroke:none;" d="M232 681L233 682L232 681z"/>
<path style="fill:#93a1ac; stroke:none;" d="M233 681L234 682L233 681M536 681L537 682L536 681z"/>
<path style="fill:#ccd2d8; stroke:none;" d="M537 681L538 682L537 681M234 682L235 683L234 682z"/>
<path style="fill:#93a1ac; stroke:none;" d="M534 682L535 683L534 682z"/>
<path style="fill:#ccd2d8; stroke:none;" d="M535 682L536 683L535 682M236 683L237 684L236 683z"/>
<path style="fill:#93a1ac; stroke:none;" d="M237 683L238 684L237 683M532 683L533 684L532 683z"/>
<path style="fill:#ccd2d8; stroke:none;" d="M533 683L534 684L533 683M238 684L239 685L238 684z"/>
<path style="fill:#93a1ac; stroke:none;" d="M239 684L240 685L239 684M530 684L531 685L530 684z"/>
<path style="fill:#ccd2d8; stroke:none;" d="M531 684L532 685L531 684M240 685L241 686L240 685z"/>
<path style="fill:#93a1ac; stroke:none;" d="M241 685L242 686L241 685M528 685L529 686L528 685z"/>
<path style="fill:#ccd2d8; stroke:none;" d="M242 686L243 687L242 686z"/>
<path style="fill:#93a1ac; stroke:none;" d="M243 686L244 687L243 686M526 686L527 687L526 686M245 687L246 688L245 687M524 687L525 688L524 687M247 688L248 689L247 688M522 688L523 689L522 688z"/>
<path style="fill:#ccd2d8; stroke:none;" d="M249 689L250 690L249 689z"/>
<path style="fill:#93a1ac; stroke:none;" d="M519 689L520 690L519 689z"/>
<path style="fill:#ccd2d8; stroke:none;" d="M520 689L521 690L520 689M251 690L252 691L251 690z"/>
<path style="fill:#93a1ac; stroke:none;" d="M252 690L253 691L252 690M517 690L518 691L517 690z"/>
<path style="fill:#ccd2d8; stroke:none;" d="M518 690L519 691L518 690z"/>
<path style="fill:#93a1ac; stroke:none;" d="M254 691L255 692L254 691M515 691L516 692L515 691M256 692L257 693L256 692M512 692L513 693L512 692z"/>
<path style="fill:#ccd2d8; stroke:none;" d="M513 692L514 693L513 692M258 693L259 694L258 693z"/>
<path style="fill:#93a1ac; stroke:none;" d="M259 693L260 694L259 693M510 693L511 694L510 693z"/>
<path style="fill:#ccd2d8; stroke:none;" d="M511 693L512 694L511 693z"/>
<path style="fill:#93a1ac; stroke:none;" d="M261 694L262 695L261 694z"/>
<path style="fill:#ccd2d8; stroke:none;" d="M508 694L509 695L508 694M263 695L264 696L263 695z"/>
<path style="fill:#93a1ac; stroke:none;" d="M264 695L265 696L264 695M505 695L506 696L505 695z"/>
<path style="fill:#ccd2d8; stroke:none;" d="M506 695L507 696L506 695M266 696L267 697L266 696z"/>
<path style="fill:#93a1ac; stroke:none;" d="M502 696L503 697L502 696z"/>
<path style="fill:#ccd2d8; stroke:none;" d="M503 696L504 697L503 696z"/>
<path style="fill:#93a1ac; stroke:none;" d="M269 697L270 698L269 697M500 697L501 698L500 697z"/>
<path style="fill:#ccd2d8; stroke:none;" d="M271 698L272 699L271 698z"/>
<path style="fill:#93a1ac; stroke:none;" d="M272 698L273 699L272 698M497 698L498 699L497 698z"/>
<path style="fill:#ccd2d8; stroke:none;" d="M498 698L499 699L498 698M274 699L275 700L274 699z"/>
<path style="fill:#93a1ac; stroke:none;" d="M275 699L276 700L275 699M494 699L495 700L494 699z"/>
<path style="fill:#ccd2d8; stroke:none;" d="M495 699L496 700L495 699M277 700L278 701L277 700z"/>
<path style="fill:#93a1ac; stroke:none;" d="M278 700L279 701L278 700M491 700L492 701L491 700z"/>
<path style="fill:#ccd2d8; stroke:none;" d="M492 700L493 701L492 700M280 701L281 702L280 701z"/>
<path style="fill:#93a1ac; stroke:none;" d="M281 701L282 702L281 701M488 701L489 702L488 701z"/>
<path style="fill:#ccd2d8; stroke:none;" d="M489 701L490 702L489 701M283 702L284 703L283 702z"/>
<path style="fill:#93a1ac; stroke:none;" d="M284 702L285 703L284 702M485 702L486 703L485 702z"/>
<path style="fill:#ccd2d8; stroke:none;" d="M486 702L487 703L486 702M286 703L287 704L286 703z"/>
<path style="fill:#93a1ac; stroke:none;" d="M287 703L288 704L287 703M482 703L483 704L482 703z"/>
<path style="fill:#ccd2d8; stroke:none;" d="M483 703L484 704L483 703M289 704L290 705L289 704z"/>
<path style="fill:#93a1ac; stroke:none;" d="M290.667 704.333L291.333 704.667L290.667 704.333M478.667 704.333L479.333 704.667L478.667 704.333z"/>
<path style="fill:#ccd2d8; stroke:none;" d="M293 705L294 706L293 705z"/>
<path style="fill:#93a1ac; stroke:none;" d="M294 705L295 706L294 705M475 705L476 706L475 705z"/>
<path style="fill:#ccd2d8; stroke:none;" d="M476 705L477 706L476 705M296 706L297 707L296 706z"/>
<path style="fill:#93a1ac; stroke:none;" d="M297.667 706.333L298.333 706.667L297.667 706.333M471 706L472 707L471 706z"/>
<path style="fill:#ccd2d8; stroke:none;" d="M472 706L473 707L472 706M300 707L301 708L300 707z"/>
<path style="fill:#93a1ac; stroke:none;" d="M301.667 707.333L302.333 707.667L301.667 707.333M467.667 707.333L468.333 707.667L467.667 707.333z"/>
<path style="fill:#ccd2d8; stroke:none;" d="M469 707L470 708L469 707M304 708L305 709L304 708z"/>
<path style="fill:#93a1ac; stroke:none;" d="M305.667 708.333L306.333 708.667L305.667 708.333M463.667 708.333L464.333 708.667L463.667 708.333z"/>
<path style="fill:#ccd2d8; stroke:none;" d="M465 708L466 709L465 708M308 709L309 710L308 709z"/>
<path style="fill:#93a1ac; stroke:none;" d="M309.667 709.333L310.333 709.667L309.667 709.333M459 709L460 710L459 709z"/>
<path style="fill:#ccd2d8; stroke:none;" d="M460.667 709.333L461.333 709.667L460.667 709.333M313 710L314 711L313 710z"/>
<path style="fill:#93a1ac; stroke:none;" d="M314.667 710.333L315.333 710.667L314.667 710.333M454.667 710.333L455.333 710.667L454.667 710.333z"/>
<path style="fill:#ccd2d8; stroke:none;" d="M456 710L457 711L456 710M317.667 711.333L318.333 711.667L317.667 711.333z"/>
<path style="fill:#93a1ac; stroke:none;" d="M319.667 711.333L320.333 711.667L319.667 711.333M449.667 711.333L450.333 711.667L449.667 711.333z"/>
<path style="fill:#ccd2d8; stroke:none;" d="M451 711L452 712L451 711M322.667 712.333L323.333 712.667L322.667 712.333z"/>
<path style="fill:#93a1ac; stroke:none;" d="M324.667 712.333L325.333 712.667L324.667 712.333M444.667 712.333L445.333 712.667L444.667 712.333z"/>
<path style="fill:#ccd2d8; stroke:none;" d="M446 712L447 713L446 712M328 713L329 714L328 713z"/>
<path style="fill:#93a1ac; stroke:none;" d="M329 713L329 714L332 714L329 713M438.667 713.333L439.333 713.667L438.667 713.333z"/>
<path style="fill:#ccd2d8; stroke:none;" d="M440.667 713.333L441.333 713.667L440.667 713.333M334.667 714.333L335.333 714.667L334.667 714.333z"/>
<path style="fill:#93a1ac; stroke:none;" d="M336 714L336 715L339 715L336 714M431 714L431 715L434 715L431 714z"/>
<path style="fill:#ccd2d8; stroke:none;" d="M434.667 714.333L435.333 714.667L434.667 714.333M341.667 715.333L342.333 715.667L341.667 715.333z"/>
<path style="fill:#93a1ac; stroke:none;" d="M343 715L343 716L347 716L343 715M423 715L423 716L427 716L423 715z"/>
<path style="fill:#ccd2d8; stroke:none;" d="M427.667 715.333L428.333 715.667L427.667 715.333M350.667 716.333L351.333 716.667L350.667 716.333z"/>
<path style="fill:#93a1ac; stroke:none;" d="M352 716L352 717L357 717L352 716M413 716L413 717L418 717L413 716z"/>
<path style="fill:#ccd2d8; stroke:none;" d="M418.667 716.333L419.333 716.667L418.667 716.333M361 717L361 718L365 718L361 717z"/>
<path style="fill:#93a1ac; stroke:none;" d="M365 717L365 718L376 718L365 717M393 717L393 718L405 718L393 717z"/>
<path style="fill:#ccd2d8; stroke:none;" d="M405 717L405 718L409 718L405 717z"/>
</svg>
