<?xml version="1.0" standalone="no"?>
<!DOCTYPE svg PUBLIC "-//W3C//DTD SVG 20010904//EN"
 "http://www.w3.org/TR/2001/REC-SVG-20010904/DTD/svg10.dtd">
<svg version="1.0" xmlns="http://www.w3.org/2000/svg"
 width="768.000000pt" height="768.000000pt" viewBox="0 0 768.000000 768.000000"
 preserveAspectRatio="xMidYMid meet">
<metadata>
Created by potrace 1.16, written by Peter Selinger 2001-2019
</metadata>
<g transform="translate(0.000000,768.000000) scale(0.100000,-0.100000)"
fill="#000000" stroke="none">
<path d="M3630 7173 c-178 -16 -271 -28 -365 -44 -1022 -182 -1901 -830 -2380
-1753 -190 -364 -304 -740 -357 -1176 -19 -157 -16 -602 6 -765 103 -769 428
-1431 966 -1965 888 -883 2201 -1193 3390 -800 675 223 1241 636 1665 1215
194 265 372 618 475 940 26 84 100 369 100 389 0 3 -299 6 -664 6 l-664 0 -23
-58 c-12 -31 -48 -109 -80 -172 -434 -872 -1423 -1324 -2365 -1080 -670 173
-1213 671 -1439 1320 -19 56 -35 106 -35 111 0 5 409 9 995 9 l995 0 0 490 0
490 -1015 0 c-722 0 -1015 3 -1015 11 0 6 9 46 20 88 148 581 543 1072 1080
1341 283 142 542 207 865 217 593 19 1141 -204 1550 -629 227 -235 394 -514
487 -810 l33 -108 638 0 c607 0 637 1 637 18 0 31 -67 294 -106 413 -227 709
-707 1340 -1334 1755 -475 314 -1010 497 -1584 544 -118 9 -392 11 -476 3z"/>
</g>
</svg>
