<?xml version="1.0" encoding="UTF-8" standalone="no"?><svg xmlns="http://www.w3.org/2000/svg" xmlns:xlink="http://www.w3.org/1999/xlink" contentScriptType="application/ecmascript" contentStyleType="text/css" height="433px" preserveAspectRatio="none" style="width:907px;height:433px;" version="1.1" viewBox="0 0 907 433" width="907px" zoomAndPan="magnify"><defs><filter height="300%" id="f1a3n4bbn38eko" width="300%" x="-1" y="-1"><feGaussianBlur result="blurOut" stdDeviation="2.0"/><feColorMatrix in="blurOut" result="blurOut2" type="matrix" values="0 0 0 0 0 0 0 0 0 0 0 0 0 0 0 0 0 0 .4 0"/><feOffset dx="4.0" dy="4.0" in="blurOut2" result="blurOut3"/><feBlend in="SourceGraphic" in2="blurOut3" mode="normal"/></filter></defs><g><text fill="#000000" font-family="sans-serif" font-size="14" font-weight="bold" lengthAdjust="spacingAndGlyphs" textLength="135" x="381.5" y="22.9951">日内配对交易路线图</text><line style="stroke: #A80036; stroke-width: 1.0; stroke-dasharray: 5.0,5.0;" x1="58" x2="58" y1="68.5938" y2="421.9219"/><line style="stroke: #A80036; stroke-width: 1.0; stroke-dasharray: 5.0,5.0;" x1="290" x2="290" y1="68.5938" y2="421.9219"/><line style="stroke: #A80036; stroke-width: 1.0; stroke-dasharray: 5.0,5.0;" x1="506" x2="506" y1="68.5938" y2="421.9219"/><line style="stroke: #A80036; stroke-width: 1.0; stroke-dasharray: 5.0,5.0;" x1="686" x2="686" y1="68.5938" y2="421.9219"/><line style="stroke: #A80036; stroke-width: 1.0; stroke-dasharray: 5.0,5.0;" x1="840" x2="840" y1="68.5938" y2="421.9219"/><rect fill="#FEFECE" filter="url(#f1a3n4bbn38eko)" height="30.2969" style="stroke: #A80036; stroke-width: 1.5;" width="96" x="8" y="33.2969"/><text fill="#000000" font-family="sans-serif" font-size="14" lengthAdjust="spacingAndGlyphs" textLength="82" x="15" y="53.292">2020-09-05</text><rect fill="#FEFECE" filter="url(#f1a3n4bbn38eko)" height="30.2969" style="stroke: #A80036; stroke-width: 1.5;" width="96" x="240" y="33.2969"/><text fill="#000000" font-family="sans-serif" font-size="14" lengthAdjust="spacingAndGlyphs" textLength="82" x="247" y="53.292">2020-09-15</text><rect fill="#FEFECE" filter="url(#f1a3n4bbn38eko)" height="30.2969" style="stroke: #A80036; stroke-width: 1.5;" width="96" x="456" y="33.2969"/><text fill="#000000" font-family="sans-serif" font-size="14" lengthAdjust="spacingAndGlyphs" textLength="82" x="463" y="53.292">2020-10-01</text><rect fill="#FEFECE" filter="url(#f1a3n4bbn38eko)" height="30.2969" style="stroke: #A80036; stroke-width: 1.5;" width="96" x="636" y="33.2969"/><text fill="#000000" font-family="sans-serif" font-size="14" lengthAdjust="spacingAndGlyphs" textLength="82" x="643" y="53.292">2020-10-15</text><rect fill="#FEFECE" filter="url(#f1a3n4bbn38eko)" height="30.2969" style="stroke: #A80036; stroke-width: 1.5;" width="96" x="790" y="33.2969"/><text fill="#000000" font-family="sans-serif" font-size="14" lengthAdjust="spacingAndGlyphs" textLength="82" x="797" y="53.292">2020-11-01</text><rect fill="#EEEEEE" filter="url(#f1a3n4bbn38eko)" height="3" style="stroke: #EEEEEE; stroke-width: 1.0;" width="892" x="3" y="99.1602"/><line style="stroke: #000000; stroke-width: 1.0;" x1="3" x2="895" y1="99.1602" y2="99.1602"/><line style="stroke: #000000; stroke-width: 1.0;" x1="3" x2="895" y1="102.1602" y2="102.1602"/><rect fill="#EEEEEE" filter="url(#f1a3n4bbn38eko)" height="23.1328" style="stroke: #000000; stroke-width: 2.0;" width="47" x="425.5" y="88.5938"/><text fill="#000000" font-family="sans-serif" font-size="13" font-weight="bold" lengthAdjust="spacingAndGlyphs" textLength="28" x="431.5" y="104.6606">回测</text><polygon fill="#A80036" points="278,138.8594,288,142.8594,278,146.8594,282,142.8594" style="stroke: #A80036; stroke-width: 1.0;"/><line style="stroke: #A80036; stroke-width: 1.0;" x1="58" x2="284" y1="142.8594" y2="142.8594"/><text fill="#000000" font-family="sans-serif" font-size="13" font-weight="bold" lengthAdjust="spacingAndGlyphs" textLength="9" x="65" y="137.7935">1</text><text fill="#000000" font-family="sans-serif" font-size="13" lengthAdjust="spacingAndGlyphs" textLength="195" x="78" y="137.7935">亿级别历史数据插入、存储及查询</text><polygon fill="#A80036" points="674,167.9922,684,171.9922,674,175.9922,678,171.9922" style="stroke: #A80036; stroke-width: 1.0;"/><line style="stroke: #A80036; stroke-width: 1.0;" x1="290" x2="680" y1="171.9922" y2="171.9922"/><text fill="#000000" font-family="sans-serif" font-size="13" font-weight="bold" lengthAdjust="spacingAndGlyphs" textLength="9" x="297" y="166.9263">2</text><text fill="#000000" font-family="sans-serif" font-size="13" lengthAdjust="spacingAndGlyphs" textLength="117" x="310" y="166.9263">基于事件的回测框架</text><polygon fill="#A80036" points="828,197.125,838,201.125,828,205.125,832,201.125" style="stroke: #A80036; stroke-width: 1.0;"/><line style="stroke: #A80036; stroke-width: 1.0;" x1="686" x2="834" y1="201.125" y2="201.125"/><text fill="#000000" font-family="sans-serif" font-size="13" font-weight="bold" lengthAdjust="spacingAndGlyphs" textLength="9" x="693" y="196.0591">3</text><text fill="#000000" font-family="sans-serif" font-size="13" lengthAdjust="spacingAndGlyphs" textLength="117" x="706" y="196.0591">模拟撮合的回测核心</text><rect fill="#EEEEEE" filter="url(#f1a3n4bbn38eko)" height="3" style="stroke: #EEEEEE; stroke-width: 1.0;" width="892" x="3" y="229.6914"/><line style="stroke: #000000; stroke-width: 1.0;" x1="3" x2="895" y1="229.6914" y2="229.6914"/><line style="stroke: #000000; stroke-width: 1.0;" x1="3" x2="895" y1="232.6914" y2="232.6914"/><rect fill="#EEEEEE" filter="url(#f1a3n4bbn38eko)" height="23.1328" style="stroke: #000000; stroke-width: 2.0;" width="47" x="425.5" y="219.125"/><text fill="#000000" font-family="sans-serif" font-size="13" font-weight="bold" lengthAdjust="spacingAndGlyphs" textLength="28" x="431.5" y="235.1919">交易</text><polygon fill="#A80036" points="494,269.3906,504,273.3906,494,277.3906,498,273.3906" style="stroke: #A80036; stroke-width: 1.0;"/><line style="stroke: #A80036; stroke-width: 1.0;" x1="290" x2="500" y1="273.3906" y2="273.3906"/><text fill="#000000" font-family="sans-serif" font-size="13" font-weight="bold" lengthAdjust="spacingAndGlyphs" textLength="9" x="297" y="268.3247">4</text><text fill="#000000" font-family="sans-serif" font-size="13" lengthAdjust="spacingAndGlyphs" textLength="179" x="310" y="268.3247">秒级别实时行情(中信，同花顺)</text><polygon fill="#A80036" points="674,298.5234,684,302.5234,674,306.5234,678,302.5234" style="stroke: #A80036; stroke-width: 1.0;"/><line style="stroke: #A80036; stroke-width: 1.0;" x1="506" x2="680" y1="302.5234" y2="302.5234"/><text fill="#000000" font-family="sans-serif" font-size="13" font-weight="bold" lengthAdjust="spacingAndGlyphs" textLength="9" x="513" y="297.4575">5</text><text fill="#000000" font-family="sans-serif" font-size="13" lengthAdjust="spacingAndGlyphs" textLength="143" x="526" y="297.4575">即时触发的策略信号系统</text><polygon fill="#A80036" points="828,327.6563,838,331.6563,828,335.6563,832,331.6563" style="stroke: #A80036; stroke-width: 1.0;"/><line style="stroke: #A80036; stroke-width: 1.0;" x1="686" x2="834" y1="331.6563" y2="331.6563"/><text fill="#000000" font-family="sans-serif" font-size="13" font-weight="bold" lengthAdjust="spacingAndGlyphs" textLength="9" x="693" y="326.5903">6</text><text fill="#000000" font-family="sans-serif" font-size="13" lengthAdjust="spacingAndGlyphs" textLength="117" x="706" y="326.5903">秒级别下单交易系统</text><rect fill="#EEEEEE" filter="url(#f1a3n4bbn38eko)" height="3" style="stroke: #EEEEEE; stroke-width: 1.0;" width="892" x="3" y="360.2227"/><line style="stroke: #000000; stroke-width: 1.0;" x1="3" x2="895" y1="360.2227" y2="360.2227"/><line style="stroke: #000000; stroke-width: 1.0;" x1="3" x2="895" y1="363.2227" y2="363.2227"/><rect fill="#EEEEEE" filter="url(#f1a3n4bbn38eko)" height="23.1328" style="stroke: #000000; stroke-width: 2.0;" width="75" x="411.5" y="349.6563"/><text fill="#000000" font-family="sans-serif" font-size="13" font-weight="bold" lengthAdjust="spacingAndGlyphs" textLength="56" x="417.5" y="365.7231">策略研发</text><polygon fill="#A80036" points="828,399.9219,838,403.9219,828,407.9219,832,403.9219" style="stroke: #A80036; stroke-width: 1.0;"/><line style="stroke: #A80036; stroke-width: 1.0;" x1="58" x2="834" y1="403.9219" y2="403.9219"/><text fill="#000000" font-family="sans-serif" font-size="13" font-weight="bold" lengthAdjust="spacingAndGlyphs" textLength="9" x="65" y="398.856">7</text><text fill="#000000" font-family="sans-serif" font-size="13" lengthAdjust="spacingAndGlyphs" textLength="182" x="78" y="398.856">开发能使用的日内配对交易策略</text></g></svg>